<?xml version="1.0" encoding="UTF-8"?>
<!DOCTYPE svg PUBLIC "-//W3C//DTD SVG 1.1//EN" "http://www.w3.org/Graphics/SVG/1.1/DTD/svg11.dtd">
<svg xmlns="http://www.w3.org/2000/svg" version="1.1" width="717px" height="603px" style="shape-rendering:geometricPrecision; text-rendering:geometricPrecision; image-rendering:optimizeQuality; fill-rule:evenodd; clip-rule:evenodd" xmlns:xlink="http://www.w3.org/1999/xlink">
<g><path style="opacity:1" fill="#171717" d="M -0.5,-0.5 C 238.5,-0.5 477.5,-0.5 716.5,-0.5C 716.5,8.16667 716.5,16.8333 716.5,25.5C 709.469,25.5188 709.136,26.0188 715.5,27C 712.244,27.3668 709.077,26.8668 706,25.5C 704.833,25.6667 703.667,25.8333 702.5,26C 704.5,26.3333 706.5,26.6667 708.5,27C 704.898,27.4759 701.398,26.9759 698,25.5C 696.833,25.6667 695.667,25.8333 694.5,26C 696.5,26.3333 698.5,26.6667 700.5,27C 696.898,27.4759 693.398,26.9759 690,25.5C 688.833,25.6667 687.667,25.8333 686.5,26C 688.5,26.3333 690.5,26.6667 692.5,27C 688.898,27.4759 685.398,26.9759 682,25.5C 680.833,25.6667 679.667,25.8333 678.5,26C 680.5,26.3333 682.5,26.6667 684.5,27C 680.898,27.4759 677.398,26.9759 674,25.5C 672.833,25.6667 671.667,25.8333 670.5,26C 672.5,26.3333 674.5,26.6667 676.5,27C 672.898,27.4759 669.398,26.9759 666,25.5C 664.833,25.6667 663.667,25.8333 662.5,26C 664.5,26.3333 666.5,26.6667 668.5,27C 664.898,27.4759 661.398,26.9759 658,25.5C 656.833,25.6667 655.667,25.8333 654.5,26C 656.5,26.3333 658.5,26.6667 660.5,27C 656.898,27.4759 653.398,26.9759 650,25.5C 648.833,25.6667 647.667,25.8333 646.5,26C 648.5,26.3333 650.5,26.6667 652.5,27C 648.898,27.4759 645.398,26.9759 642,25.5C 640.833,25.6667 639.667,25.8333 638.5,26C 640.5,26.3333 642.5,26.6667 644.5,27C 640.898,27.4759 637.398,26.9759 634,25.5C 632.833,25.6667 631.667,25.8333 630.5,26C 632.5,26.3333 634.5,26.6667 636.5,27C 632.898,27.4759 629.398,26.9759 626,25.5C 624.833,25.6667 623.667,25.8333 622.5,26C 624.5,26.3333 626.5,26.6667 628.5,27C 624.898,27.4759 621.398,26.9759 618,25.5C 616.833,25.6667 615.667,25.8333 614.5,26C 616.5,26.3333 618.5,26.6667 620.5,27C 616.898,27.4759 613.398,26.9759 610,25.5C 608.833,25.6667 607.667,25.8333 606.5,26C 608.5,26.3333 610.5,26.6667 612.5,27C 608.898,27.4759 605.398,26.9759 602,25.5C 600.833,25.6667 599.667,25.8333 598.5,26C 600.5,26.3333 602.5,26.6667 604.5,27C 600.898,27.4759 597.398,26.9759 594,25.5C 592.833,25.6667 591.667,25.8333 590.5,26C 592.5,26.3333 594.5,26.6667 596.5,27C 592.898,27.4759 589.398,26.9759 586,25.5C 584.833,25.6667 583.667,25.8333 582.5,26C 584.5,26.3333 586.5,26.6667 588.5,27C 584.898,27.4759 581.398,26.9759 578,25.5C 576.833,25.6667 575.667,25.8333 574.5,26C 576.5,26.3333 578.5,26.6667 580.5,27C 576.898,27.4759 573.398,26.9759 570,25.5C 568.833,25.6667 567.667,25.8333 566.5,26C 568.5,26.3333 570.5,26.6667 572.5,27C 568.898,27.4759 565.398,26.9759 562,25.5C 560.833,25.6667 559.667,25.8333 558.5,26C 560.5,26.3333 562.5,26.6667 564.5,27C 560.898,27.4759 557.398,26.9759 554,25.5C 552.833,25.6667 551.667,25.8333 550.5,26C 552.5,26.3333 554.5,26.6667 556.5,27C 552.898,27.4759 549.398,26.9759 546,25.5C 544.833,25.6667 543.667,25.8333 542.5,26C 544.5,26.3333 546.5,26.6667 548.5,27C 544.898,27.4759 541.398,26.9759 538,25.5C 536.833,25.6667 535.667,25.8333 534.5,26C 536.5,26.3333 538.5,26.6667 540.5,27C 536.898,27.4759 533.398,26.9759 530,25.5C 528.833,25.6667 527.667,25.8333 526.5,26C 528.5,26.3333 530.5,26.6667 532.5,27C 528.898,27.4759 525.398,26.9759 522,25.5C 520.833,25.6667 519.667,25.8333 518.5,26C 520.5,26.3333 522.5,26.6667 524.5,27C 520.898,27.4759 517.398,26.9759 514,25.5C 512.833,25.6667 511.667,25.8333 510.5,26C 512.5,26.3333 514.5,26.6667 516.5,27C 512.898,27.4759 509.398,26.9759 506,25.5C 504.833,25.6667 503.667,25.8333 502.5,26C 504.5,26.3333 506.5,26.6667 508.5,27C 504.898,27.4759 501.398,26.9759 498,25.5C 496.833,25.6667 495.667,25.8333 494.5,26C 496.5,26.3333 498.5,26.6667 500.5,27C 496.898,27.4759 493.398,26.9759 490,25.5C 488.833,25.6667 487.667,25.8333 486.5,26C 488.5,26.3333 490.5,26.6667 492.5,27C 488.898,27.4759 485.398,26.9759 482,25.5C 480.833,25.6667 479.667,25.8333 478.5,26C 480.5,26.3333 482.5,26.6667 484.5,27C 480.898,27.4759 477.398,26.9759 474,25.5C 472.833,25.6667 471.667,25.8333 470.5,26C 472.5,26.3333 474.5,26.6667 476.5,27C 472.898,27.4759 469.398,26.9759 466,25.5C 464.833,25.6667 463.667,25.8333 462.5,26C 464.5,26.3333 466.5,26.6667 468.5,27C 464.898,27.4759 461.398,26.9759 458,25.5C 456.833,25.6667 455.667,25.8333 454.5,26C 456.5,26.3333 458.5,26.6667 460.5,27C 456.898,27.4759 453.398,26.9759 450,25.5C 448.833,25.6667 447.667,25.8333 446.5,26C 448.5,26.3333 450.5,26.6667 452.5,27C 448.898,27.4759 445.398,26.9759 442,25.5C 440.833,25.6667 439.667,25.8333 438.5,26C 440.5,26.3333 442.5,26.6667 444.5,27C 440.898,27.4759 437.398,26.9759 434,25.5C 432.833,25.6667 431.667,25.8333 430.5,26C 432.5,26.3333 434.5,26.6667 436.5,27C 432.898,27.4759 429.398,26.9759 426,25.5C 424.408,25.6052 422.908,25.9386 421.5,26.5C 369.704,12.921 318.037,13.2543 266.5,27.5C 263.603,27.212 260.77,26.5454 258,25.5C 256.833,25.6667 255.667,25.8333 254.5,26C 256.5,26.3333 258.5,26.6667 260.5,27C 256.898,27.4759 253.398,26.9759 250,25.5C 248.833,25.6667 247.667,25.8333 246.5,26C 248.5,26.3333 250.5,26.6667 252.5,27C 248.898,27.4759 245.398,26.9759 242,25.5C 240.833,25.6667 239.667,25.8333 238.5,26C 240.5,26.3333 242.5,26.6667 244.5,27C 240.898,27.4759 237.398,26.9759 234,25.5C 232.833,25.6667 231.667,25.8333 230.5,26C 232.5,26.3333 234.5,26.6667 236.5,27C 232.898,27.4759 229.398,26.9759 226,25.5C 224.833,25.6667 223.667,25.8333 222.5,26C 224.5,26.3333 226.5,26.6667 228.5,27C 224.898,27.4759 221.398,26.9759 218,25.5C 216.833,25.6667 215.667,25.8333 214.5,26C 216.5,26.3333 218.5,26.6667 220.5,27C 216.898,27.4759 213.398,26.9759 210,25.5C 208.833,25.6667 207.667,25.8333 206.5,26C 208.5,26.3333 210.5,26.6667 212.5,27C 208.898,27.4759 205.398,26.9759 202,25.5C 200.833,25.6667 199.667,25.8333 198.5,26C 200.5,26.3333 202.5,26.6667 204.5,27C 200.898,27.4759 197.398,26.9759 194,25.5C 192.833,25.6667 191.667,25.8333 190.5,26C 192.5,26.3333 194.5,26.6667 196.5,27C 192.898,27.4759 189.398,26.9759 186,25.5C 184.833,25.6667 183.667,25.8333 182.5,26C 184.5,26.3333 186.5,26.6667 188.5,27C 184.898,27.4759 181.398,26.9759 178,25.5C 176.833,25.6667 175.667,25.8333 174.5,26C 176.5,26.3333 178.5,26.6667 180.5,27C 176.898,27.4759 173.398,26.9759 170,25.5C 168.833,25.6667 167.667,25.8333 166.5,26C 168.5,26.3333 170.5,26.6667 172.5,27C 168.898,27.4759 165.398,26.9759 162,25.5C 160.833,25.6667 159.667,25.8333 158.5,26C 160.5,26.3333 162.5,26.6667 164.5,27C 160.898,27.4759 157.398,26.9759 154,25.5C 152.833,25.6667 151.667,25.8333 150.5,26C 152.5,26.3333 154.5,26.6667 156.5,27C 152.898,27.4759 149.398,26.9759 146,25.5C 144.833,25.6667 143.667,25.8333 142.5,26C 144.5,26.3333 146.5,26.6667 148.5,27C 144.898,27.4759 141.398,26.9759 138,25.5C 136.833,25.6667 135.667,25.8333 134.5,26C 136.5,26.3333 138.5,26.6667 140.5,27C 136.898,27.4759 133.398,26.9759 130,25.5C 128.833,25.6667 127.667,25.8333 126.5,26C 128.5,26.3333 130.5,26.6667 132.5,27C 128.898,27.4759 125.398,26.9759 122,25.5C 120.833,25.6667 119.667,25.8333 118.5,26C 120.5,26.3333 122.5,26.6667 124.5,27C 120.898,27.4759 117.398,26.9759 114,25.5C 112.833,25.6667 111.667,25.8333 110.5,26C 112.5,26.3333 114.5,26.6667 116.5,27C 112.898,27.4759 109.398,26.9759 106,25.5C 104.833,25.6667 103.667,25.8333 102.5,26C 104.5,26.3333 106.5,26.6667 108.5,27C 104.898,27.4759 101.398,26.9759 98,25.5C 96.8333,25.6667 95.6667,25.8333 94.5,26C 96.5,26.3333 98.5,26.6667 100.5,27C 96.8978,27.4759 93.3978,26.9759 90,25.5C 88.8333,25.6667 87.6667,25.8333 86.5,26C 88.5,26.3333 90.5,26.6667 92.5,27C 88.8978,27.4759 85.3978,26.9759 82,25.5C 80.8333,25.6667 79.6667,25.8333 78.5,26C 80.5,26.3333 82.5,26.6667 84.5,27C 80.8978,27.4759 77.3978,26.9759 74,25.5C 72.8333,25.6667 71.6667,25.8333 70.5,26C 72.5,26.3333 74.5,26.6667 76.5,27C 72.8978,27.4759 69.3978,26.9759 66,25.5C 64.8333,25.6667 63.6667,25.8333 62.5,26C 64.5,26.3333 66.5,26.6667 68.5,27C 64.8978,27.4759 61.3978,26.9759 58,25.5C 56.8333,25.6667 55.6667,25.8333 54.5,26C 56.5,26.3333 58.5,26.6667 60.5,27C 56.8978,27.4759 53.3978,26.9759 50,25.5C 48.8333,25.6667 47.6667,25.8333 46.5,26C 48.5,26.3333 50.5,26.6667 52.5,27C 48.8978,27.4759 45.3978,26.9759 42,25.5C 40.8333,25.6667 39.6667,25.8333 38.5,26C 40.5,26.3333 42.5,26.6667 44.5,27C 40.8978,27.4759 37.3978,26.9759 34,25.5C 32.8333,25.6667 31.6667,25.8333 30.5,26C 32.5,26.3333 34.5,26.6667 36.5,27C 32.8978,27.4759 29.3978,26.9759 26,25.5C 24.8333,25.6667 23.6667,25.8333 22.5,26C 24.5,26.3333 26.5,26.6667 28.5,27C 24.8978,27.4759 21.3978,26.9759 18,25.5C 16.8333,25.6667 15.6667,25.8333 14.5,26C 16.5,26.3333 18.5,26.6667 20.5,27C 16.8978,27.4759 13.3978,26.9759 10,25.5C 8.83333,25.6667 7.66667,25.8333 6.5,26C 8.5,26.3333 10.5,26.6667 12.5,27C 11.3333,27.1667 10.1667,27.3333 9,27.5C 5.92405,26.3056 2.75739,25.639 -0.5,25.5C -0.5,16.8333 -0.5,8.16667 -0.5,-0.5 Z"/></g>
<g><path style="opacity:1" fill="#999999" d="M 421.5,26.5 C 492.921,47.2711 548.587,88.9378 588.5,151.5C 608.203,184.266 621.203,219.599 627.5,257.5C 631.5,285.833 631.5,314.167 627.5,342.5C 622.864,371.766 614.197,399.766 601.5,426.5C 581.249,466.763 553.249,500.763 517.5,528.5C 438.73,584.351 352.73,598.851 259.5,572C 229.023,561.931 201.023,547.431 175.5,528.5C 140.875,502.197 113.541,469.863 93.5,431.5C 79.7662,403.964 70.4329,374.964 65.5,344.5C 61.5468,315.482 61.5468,286.482 65.5,257.5C 71.3926,219.483 84.3926,184.149 104.5,151.5C 143.325,90.4123 197.325,49.079 266.5,27.5C 318.037,13.2543 369.704,12.921 421.5,26.5 Z"/></g>
<g><path style="opacity:1" fill="#1b1b1b" d="M -0.5,25.5 C 2.75739,25.639 5.92405,26.3056 9,27.5C 10.1667,27.3333 11.3333,27.1667 12.5,27C 10.5,26.6667 8.5,26.3333 6.5,26C 7.66667,25.8333 8.83333,25.6667 10,25.5C 13.3978,26.9759 16.8978,27.4759 20.5,27C 18.5,26.6667 16.5,26.3333 14.5,26C 15.6667,25.8333 16.8333,25.6667 18,25.5C 21.3978,26.9759 24.8978,27.4759 28.5,27C 26.5,26.6667 24.5,26.3333 22.5,26C 23.6667,25.8333 24.8333,25.6667 26,25.5C 29.3978,26.9759 32.8978,27.4759 36.5,27C 34.5,26.6667 32.5,26.3333 30.5,26C 31.6667,25.8333 32.8333,25.6667 34,25.5C 37.3978,26.9759 40.8978,27.4759 44.5,27C 42.5,26.6667 40.5,26.3333 38.5,26C 39.6667,25.8333 40.8333,25.6667 42,25.5C 45.3978,26.9759 48.8978,27.4759 52.5,27C 50.5,26.6667 48.5,26.3333 46.5,26C 47.6667,25.8333 48.8333,25.6667 50,25.5C 53.3978,26.9759 56.8978,27.4759 60.5,27C 58.5,26.6667 56.5,26.3333 54.5,26C 55.6667,25.8333 56.8333,25.6667 58,25.5C 61.3978,26.9759 64.8978,27.4759 68.5,27C 66.5,26.6667 64.5,26.3333 62.5,26C 63.6667,25.8333 64.8333,25.6667 66,25.5C 69.3978,26.9759 72.8978,27.4759 76.5,27C 74.5,26.6667 72.5,26.3333 70.5,26C 71.6667,25.8333 72.8333,25.6667 74,25.5C 77.3978,26.9759 80.8978,27.4759 84.5,27C 82.5,26.6667 80.5,26.3333 78.5,26C 79.6667,25.8333 80.8333,25.6667 82,25.5C 85.3978,26.9759 88.8978,27.4759 92.5,27C 90.5,26.6667 88.5,26.3333 86.5,26C 87.6667,25.8333 88.8333,25.6667 90,25.5C 93.3978,26.9759 96.8978,27.4759 100.5,27C 98.5,26.6667 96.5,26.3333 94.5,26C 95.6667,25.8333 96.8333,25.6667 98,25.5C 101.398,26.9759 104.898,27.4759 108.5,27C 106.5,26.6667 104.5,26.3333 102.5,26C 103.667,25.8333 104.833,25.6667 106,25.5C 109.398,26.9759 112.898,27.4759 116.5,27C 114.5,26.6667 112.5,26.3333 110.5,26C 111.667,25.8333 112.833,25.6667 114,25.5C 117.398,26.9759 120.898,27.4759 124.5,27C 122.5,26.6667 120.5,26.3333 118.5,26C 119.667,25.8333 120.833,25.6667 122,25.5C 125.398,26.9759 128.898,27.4759 132.5,27C 130.5,26.6667 128.5,26.3333 126.5,26C 127.667,25.8333 128.833,25.6667 130,25.5C 133.398,26.9759 136.898,27.4759 140.5,27C 138.5,26.6667 136.5,26.3333 134.5,26C 135.667,25.8333 136.833,25.6667 138,25.5C 141.398,26.9759 144.898,27.4759 148.5,27C 146.5,26.6667 144.5,26.3333 142.5,26C 143.667,25.8333 144.833,25.6667 146,25.5C 149.398,26.9759 152.898,27.4759 156.5,27C 154.5,26.6667 152.5,26.3333 150.5,26C 151.667,25.8333 152.833,25.6667 154,25.5C 157.398,26.9759 160.898,27.4759 164.5,27C 162.5,26.6667 160.5,26.3333 158.5,26C 159.667,25.8333 160.833,25.6667 162,25.5C 165.398,26.9759 168.898,27.4759 172.5,27C 170.5,26.6667 168.5,26.3333 166.5,26C 167.667,25.8333 168.833,25.6667 170,25.5C 173.398,26.9759 176.898,27.4759 180.5,27C 178.5,26.6667 176.5,26.3333 174.5,26C 175.667,25.8333 176.833,25.6667 178,25.5C 181.398,26.9759 184.898,27.4759 188.5,27C 186.5,26.6667 184.5,26.3333 182.5,26C 183.667,25.8333 184.833,25.6667 186,25.5C 189.398,26.9759 192.898,27.4759 196.5,27C 194.5,26.6667 192.5,26.3333 190.5,26C 191.667,25.8333 192.833,25.6667 194,25.5C 197.398,26.9759 200.898,27.4759 204.5,27C 202.5,26.6667 200.5,26.3333 198.5,26C 199.667,25.8333 200.833,25.6667 202,25.5C 205.398,26.9759 208.898,27.4759 212.5,27C 210.5,26.6667 208.5,26.3333 206.5,26C 207.667,25.8333 208.833,25.6667 210,25.5C 213.398,26.9759 216.898,27.4759 220.5,27C 218.5,26.6667 216.5,26.3333 214.5,26C 215.667,25.8333 216.833,25.6667 218,25.5C 221.398,26.9759 224.898,27.4759 228.5,27C 226.5,26.6667 224.5,26.3333 222.5,26C 223.667,25.8333 224.833,25.6667 226,25.5C 229.398,26.9759 232.898,27.4759 236.5,27C 234.5,26.6667 232.5,26.3333 230.5,26C 231.667,25.8333 232.833,25.6667 234,25.5C 237.398,26.9759 240.898,27.4759 244.5,27C 242.5,26.6667 240.5,26.3333 238.5,26C 239.667,25.8333 240.833,25.6667 242,25.5C 245.398,26.9759 248.898,27.4759 252.5,27C 250.5,26.6667 248.5,26.3333 246.5,26C 247.667,25.8333 248.833,25.6667 250,25.5C 253.398,26.9759 256.898,27.4759 260.5,27C 258.5,26.6667 256.5,26.3333 254.5,26C 255.667,25.8333 256.833,25.6667 258,25.5C 260.77,26.5454 263.603,27.212 266.5,27.5C 197.325,49.079 143.325,90.4123 104.5,151.5C 69.5,151.5 34.5,151.5 -0.5,151.5C -0.5,109.5 -0.5,67.5 -0.5,25.5 Z"/></g>
<g><path style="opacity:1" fill="#1b1b1b" d="M 716.5,25.5 C 716.5,67.5 716.5,109.5 716.5,151.5C 673.833,151.5 631.167,151.5 588.5,151.5C 548.587,88.9378 492.921,47.2711 421.5,26.5C 422.908,25.9386 424.408,25.6052 426,25.5C 429.398,26.9759 432.898,27.4759 436.5,27C 434.5,26.6667 432.5,26.3333 430.5,26C 431.667,25.8333 432.833,25.6667 434,25.5C 437.398,26.9759 440.898,27.4759 444.5,27C 442.5,26.6667 440.5,26.3333 438.5,26C 439.667,25.8333 440.833,25.6667 442,25.5C 445.398,26.9759 448.898,27.4759 452.5,27C 450.5,26.6667 448.5,26.3333 446.5,26C 447.667,25.8333 448.833,25.6667 450,25.5C 453.398,26.9759 456.898,27.4759 460.5,27C 458.5,26.6667 456.5,26.3333 454.5,26C 455.667,25.8333 456.833,25.6667 458,25.5C 461.398,26.9759 464.898,27.4759 468.5,27C 466.5,26.6667 464.5,26.3333 462.5,26C 463.667,25.8333 464.833,25.6667 466,25.5C 469.398,26.9759 472.898,27.4759 476.5,27C 474.5,26.6667 472.5,26.3333 470.5,26C 471.667,25.8333 472.833,25.6667 474,25.5C 477.398,26.9759 480.898,27.4759 484.5,27C 482.5,26.6667 480.5,26.3333 478.5,26C 479.667,25.8333 480.833,25.6667 482,25.5C 485.398,26.9759 488.898,27.4759 492.5,27C 490.5,26.6667 488.5,26.3333 486.5,26C 487.667,25.8333 488.833,25.6667 490,25.5C 493.398,26.9759 496.898,27.4759 500.5,27C 498.5,26.6667 496.5,26.3333 494.5,26C 495.667,25.8333 496.833,25.6667 498,25.5C 501.398,26.9759 504.898,27.4759 508.5,27C 506.5,26.6667 504.5,26.3333 502.5,26C 503.667,25.8333 504.833,25.6667 506,25.5C 509.398,26.9759 512.898,27.4759 516.5,27C 514.5,26.6667 512.5,26.3333 510.5,26C 511.667,25.8333 512.833,25.6667 514,25.5C 517.398,26.9759 520.898,27.4759 524.5,27C 522.5,26.6667 520.5,26.3333 518.5,26C 519.667,25.8333 520.833,25.6667 522,25.5C 525.398,26.9759 528.898,27.4759 532.5,27C 530.5,26.6667 528.5,26.3333 526.5,26C 527.667,25.8333 528.833,25.6667 530,25.5C 533.398,26.9759 536.898,27.4759 540.5,27C 538.5,26.6667 536.5,26.3333 534.5,26C 535.667,25.8333 536.833,25.6667 538,25.5C 541.398,26.9759 544.898,27.4759 548.5,27C 546.5,26.6667 544.5,26.3333 542.5,26C 543.667,25.8333 544.833,25.6667 546,25.5C 549.398,26.9759 552.898,27.4759 556.5,27C 554.5,26.6667 552.5,26.3333 550.5,26C 551.667,25.8333 552.833,25.6667 554,25.5C 557.398,26.9759 560.898,27.4759 564.5,27C 562.5,26.6667 560.5,26.3333 558.5,26C 559.667,25.8333 560.833,25.6667 562,25.5C 565.398,26.9759 568.898,27.4759 572.5,27C 570.5,26.6667 568.5,26.3333 566.5,26C 567.667,25.8333 568.833,25.6667 570,25.5C 573.398,26.9759 576.898,27.4759 580.5,27C 578.5,26.6667 576.5,26.3333 574.5,26C 575.667,25.8333 576.833,25.6667 578,25.5C 581.398,26.9759 584.898,27.4759 588.5,27C 586.5,26.6667 584.5,26.3333 582.5,26C 583.667,25.8333 584.833,25.6667 586,25.5C 589.398,26.9759 592.898,27.4759 596.5,27C 594.5,26.6667 592.5,26.3333 590.5,26C 591.667,25.8333 592.833,25.6667 594,25.5C 597.398,26.9759 600.898,27.4759 604.5,27C 602.5,26.6667 600.5,26.3333 598.5,26C 599.667,25.8333 600.833,25.6667 602,25.5C 605.398,26.9759 608.898,27.4759 612.5,27C 610.5,26.6667 608.5,26.3333 606.5,26C 607.667,25.8333 608.833,25.6667 610,25.5C 613.398,26.9759 616.898,27.4759 620.5,27C 618.5,26.6667 616.5,26.3333 614.5,26C 615.667,25.8333 616.833,25.6667 618,25.5C 621.398,26.9759 624.898,27.4759 628.5,27C 626.5,26.6667 624.5,26.3333 622.5,26C 623.667,25.8333 624.833,25.6667 626,25.5C 629.398,26.9759 632.898,27.4759 636.5,27C 634.5,26.6667 632.5,26.3333 630.5,26C 631.667,25.8333 632.833,25.6667 634,25.5C 637.398,26.9759 640.898,27.4759 644.5,27C 642.5,26.6667 640.5,26.3333 638.5,26C 639.667,25.8333 640.833,25.6667 642,25.5C 645.398,26.9759 648.898,27.4759 652.5,27C 650.5,26.6667 648.5,26.3333 646.5,26C 647.667,25.8333 648.833,25.6667 650,25.5C 653.398,26.9759 656.898,27.4759 660.5,27C 658.5,26.6667 656.5,26.3333 654.5,26C 655.667,25.8333 656.833,25.6667 658,25.5C 661.398,26.9759 664.898,27.4759 668.5,27C 666.5,26.6667 664.5,26.3333 662.5,26C 663.667,25.8333 664.833,25.6667 666,25.5C 669.398,26.9759 672.898,27.4759 676.5,27C 674.5,26.6667 672.5,26.3333 670.5,26C 671.667,25.8333 672.833,25.6667 674,25.5C 677.398,26.9759 680.898,27.4759 684.5,27C 682.5,26.6667 680.5,26.3333 678.5,26C 679.667,25.8333 680.833,25.6667 682,25.5C 685.398,26.9759 688.898,27.4759 692.5,27C 690.5,26.6667 688.5,26.3333 686.5,26C 687.667,25.8333 688.833,25.6667 690,25.5C 693.398,26.9759 696.898,27.4759 700.5,27C 698.5,26.6667 696.5,26.3333 694.5,26C 695.667,25.8333 696.833,25.6667 698,25.5C 701.398,26.9759 704.898,27.4759 708.5,27C 706.5,26.6667 704.5,26.3333 702.5,26C 703.667,25.8333 704.833,25.6667 706,25.5C 709.077,26.8668 712.244,27.3668 715.5,27C 709.136,26.0188 709.469,25.5188 716.5,25.5 Z"/></g>
<g><path style="opacity:1" fill="#fbfcfc" d="M 322.5,34.5 C 416.235,29.6381 493.402,62.6381 554,133.5C 610.658,207.748 626.325,290.081 601,380.5C 570.578,469.256 510.744,528.089 421.5,557C 331.276,580.89 249.609,564.223 176.5,507C 105.901,444.926 74.0677,366.759 81,272.5C 93.6892,180.886 139.856,112.053 219.5,66C 251.949,48.9027 286.282,38.4027 322.5,34.5 Z"/></g>
<g><path style="opacity:1" fill="#113d6b" d="M 372.5,49.5 C 381.799,52.1892 391.299,54.1892 401,55.5C 402.44,54.8524 403.94,54.5191 405.5,54.5C 405.296,57.5176 404.963,60.5176 404.5,63.5C 403.5,63.5 402.5,63.5 401.5,63.5C 401.5,61.8333 401.5,60.1667 401.5,58.5C 398.237,57.8619 395.071,57.8619 392,58.5C 389.854,68.4127 388.354,78.4127 387.5,88.5C 389.484,88.3832 391.15,89.0499 392.5,90.5C 391.833,90.8333 391.167,91.1667 390.5,91.5C 385.854,90.559 381.187,89.7257 376.5,89C 375.692,88.6924 375.025,88.1924 374.5,87.5C 376.396,86.5344 378.396,86.2011 380.5,86.5C 381.724,76.1544 383.058,65.821 384.5,55.5C 381.482,55.2962 378.482,54.9629 375.5,54.5C 375.833,57.5 374.5,58.8333 371.5,58.5C 372.159,55.5448 372.492,52.5448 372.5,49.5 Z"/></g>
<g><path style="opacity:1" fill="#103d6b" d="M 331.5,49.5 C 339.903,49.1301 348.236,49.6301 356.5,51C 360.367,54.6602 361.534,59.1602 360,64.5C 358.118,66.8491 355.952,68.8491 353.5,70.5C 355.802,74.633 358.302,78.633 361,82.5C 362.444,84.1554 364.278,84.822 366.5,84.5C 366.5,85.5 366.5,86.5 366.5,87.5C 363.15,87.665 359.817,87.4983 356.5,87C 352.307,81.64 348.307,76.14 344.5,70.5C 343.507,75.1196 343.173,79.7863 343.5,84.5C 344.833,84.5 346.167,84.5 347.5,84.5C 347.5,85.5 347.5,86.5 347.5,87.5C 342.167,87.5 336.833,87.5 331.5,87.5C 331.5,86.5 331.5,85.5 331.5,84.5C 333.167,84.5 334.833,84.5 336.5,84.5C 336.5,73.8333 336.5,63.1667 336.5,52.5C 334.833,52.5 333.167,52.5 331.5,52.5C 331.5,51.5 331.5,50.5 331.5,49.5 Z"/></g>
<g><path style="opacity:1" fill="#103d6b" d="M 301.5,52.5 C 303.144,52.2865 304.644,52.6198 306,53.5C 312,63.5 318,73.5 324,83.5C 325.011,84.3366 326.178,84.67 327.5,84.5C 327.5,85.5 327.5,86.5 327.5,87.5C 323.077,87.6261 318.744,88.2928 314.5,89.5C 313.614,88.675 313.281,87.675 313.5,86.5C 314.873,86.6567 316.207,86.49 317.5,86C 316.208,81.8696 313.541,79.3696 309.5,78.5C 306.151,78.8916 302.817,79.3916 299.5,80C 297.924,82.9508 297.257,86.1174 297.5,89.5C 298.978,89.238 300.311,89.5713 301.5,90.5C 297.947,92.4796 294.281,93.1463 290.5,92.5C 292.636,91.5276 293.803,89.8609 294,87.5C 296.185,75.7423 298.685,64.0757 301.5,52.5 Z"/></g>
<g><path style="opacity:1" fill="#f6f8fa" d="M 343.5,52.5 C 354.282,53.6843 356.282,58.5177 349.5,67C 347.527,67.4955 345.527,67.6621 343.5,67.5C 343.5,62.5 343.5,57.5 343.5,52.5 Z"/></g>
<g><path style="opacity:1" fill="#103d6b" d="M 414.5,58.5 C 417.647,58.7366 420.647,59.5699 423.5,61C 424.126,61.7504 424.626,62.5838 425,63.5C 425.615,72.5553 426.615,81.5553 428,90.5C 434.5,84 441,77.5 447.5,71C 451.273,71.7052 454.94,73.0386 458.5,75C 457.213,76.7859 455.713,76.9526 454,75.5C 453.055,75.9054 452.388,76.572 452,77.5C 448.598,86.5394 445.098,95.5394 441.5,104.5C 442.347,105.845 443.513,106.845 445,107.5C 445.688,108.332 445.521,108.998 444.5,109.5C 439.137,107.724 434.137,105.39 429.5,102.5C 431.278,102.431 433.111,102.097 435,101.5C 437.569,94.7867 439.903,88.12 442,81.5C 435.636,88.1986 428.969,94.5319 422,100.5C 421.24,90.8069 420.24,81.1402 419,71.5C 415.882,78.346 413.049,85.346 410.5,92.5C 411.518,93.8524 412.851,94.8524 414.5,95.5C 409.793,96.1708 405.46,95.0041 401.5,92C 402,91.5 402.5,91 403,90.5C 404.356,91.3802 405.856,91.7135 407.5,91.5C 410.869,81.7549 414.536,72.0882 418.5,62.5C 416.625,61.5905 415.292,60.2572 414.5,58.5 Z"/></g>
<g><path style="opacity:1" fill="#113d6b" d="M 271.5,60.5 C 279.316,59.8993 283.982,63.3993 285.5,71C 284.723,77.7269 281.056,81.8935 274.5,83.5C 273.417,82.635 273.251,81.635 274,80.5C 278.126,78.7977 279.46,75.7977 278,71.5C 276.27,65.242 272.437,63.242 266.5,65.5C 269.027,76.0818 272.361,86.4152 276.5,96.5C 278.343,95.0613 280.01,95.228 281.5,97C 276.396,98.5349 271.396,100.368 266.5,102.5C 265.614,101.675 265.281,100.675 265.5,99.5C 266.5,99.5 267.5,99.5 268.5,99.5C 265.969,89.0464 262.969,78.7131 259.5,68.5C 257.856,68.2865 256.356,68.6198 255,69.5C 254.251,68.365 254.417,67.365 255.5,66.5C 261.01,64.6676 266.343,62.6676 271.5,60.5 Z"/></g>
<g><path style="opacity:1" fill="#f2f4f7" d="M 302.5,62.5 C 305.514,66.005 308.181,69.8384 310.5,74C 306.93,75.4277 303.264,76.0944 299.5,76C 300.815,71.5929 301.815,67.0929 302.5,62.5 Z"/></g>
<g><path style="opacity:1" fill="#103d6b" d="M 238.5,71.5 C 240.858,73.168 242.524,75.5013 243.5,78.5C 241.667,81.2904 240.667,80.9571 240.5,77.5C 236.281,78.2763 232.614,80.1096 229.5,83C 230.887,87.0384 233.053,90.5384 236,93.5C 238.56,92.47 241.06,91.3034 243.5,90C 241.355,88.1825 241.355,86.6825 243.5,85.5C 245.861,88.3771 247.861,91.5437 249.5,95C 247.237,96.8168 245.404,96.3168 244,93.5C 241.861,94.2364 239.861,95.2364 238,96.5C 238.683,101.213 240.516,105.546 243.5,109.5C 246.661,108.087 249.661,106.42 252.5,104.5C 253.052,102.997 253.052,101.331 252.5,99.5C 255.389,100.049 257.056,101.882 257.5,105C 250.254,109.542 242.754,113.708 235,117.5C 234.5,117.167 234,116.833 233.5,116.5C 234.491,115.335 235.491,114.168 236.5,113C 231.88,104.26 227.38,95.427 223,86.5C 221.111,85.9026 219.278,85.5693 217.5,85.5C 223.634,81.5959 229.968,77.9292 236.5,74.5C 237.425,73.6431 238.092,72.6431 238.5,71.5 Z"/></g>
<g><path style="opacity:1" fill="#123e6c" d="M 469.5,81.5 C 476.728,86.6138 484.394,90.9471 492.5,94.5C 491.189,97.1354 489.522,99.4687 487.5,101.5C 486.692,101.192 486.025,100.692 485.5,100C 487.007,99.1627 487.507,97.9961 487,96.5C 484,94.5 481,92.5 478,90.5C 475.451,93.765 473.284,97.265 471.5,101C 473.29,103.164 475.456,104.998 478,106.5C 481.742,102.567 482.742,103.234 481,108.5C 479.667,110.5 478.333,112.5 477,114.5C 473.833,113.333 473.667,111.833 476.5,110C 474.089,108.045 471.589,106.211 469,104.5C 466.5,108.333 464,112.167 461.5,116C 464.403,118.572 467.569,120.739 471,122.5C 472.548,119.366 474.382,119.033 476.5,121.5C 475.243,123.679 473.743,125.679 472,127.5C 464.585,122.542 457.085,117.709 449.5,113C 450.025,112.308 450.692,111.808 451.5,111.5C 453.042,112.747 454.542,112.747 456,111.5C 461.126,102.745 466.626,94.2446 472.5,86C 470.561,85.0922 469.561,83.5922 469.5,81.5 Z"/></g>
<g><path style="opacity:1" fill="#0e3c6a" d="M 203.5,96.5 C 221.095,98.0082 227.595,107.342 223,124.5C 218.575,129.923 213.241,134.256 207,137.5C 199.67,129.324 192.837,120.657 186.5,111.5C 184.833,111.5 183.167,111.5 181.5,111.5C 187.901,104.979 195.235,99.9787 203.5,96.5 Z"/></g>
<g><path style="opacity:1" fill="#a91b2f" d="M 325.5,100.5 C 377.368,96.8297 424.368,109.996 466.5,140C 470.673,143.343 474.673,146.843 478.5,150.5C 474.956,152.137 471.29,152.971 467.5,153C 415.513,112.664 357.513,100.664 293.5,117C 272.334,123.266 252.834,132.766 235,145.5C 231.757,144.128 228.591,142.628 225.5,141C 255.298,118.789 288.631,105.289 325.5,100.5 Z"/></g>
<g><path style="opacity:1" fill="#f9fafb" d="M 197.5,102.5 C 212.284,101.783 219.117,108.783 218,123.5C 216.699,127.301 214.199,129.968 210.5,131.5C 204.115,123.783 198.115,115.783 192.5,107.5C 193.882,105.451 195.548,103.785 197.5,102.5 Z"/></g>
<g><path style="opacity:1" fill="#113d6b" d="M 501.5,103.5 C 504.394,104.882 506.894,106.882 509,109.5C 508.772,120.211 508.105,130.878 507,141.5C 511.3,136.199 515.966,131.199 521,126.5C 521.624,124.536 521.124,122.869 519.5,121.5C 520,121.167 520.5,120.833 521,120.5C 524.3,122.633 527.134,125.299 529.5,128.5C 529.167,128.833 528.833,129.167 528.5,129.5C 527.38,128.167 526.047,127.667 524.5,128C 519.799,132.366 515.466,137.033 511.5,142C 507.29,143.636 502.956,144.803 498.5,145.5C 500.059,136.549 500.892,127.549 501,118.5C 495.486,123.714 490.319,129.214 485.5,135C 487.616,136.171 488.282,137.671 487.5,139.5C 484.271,137.058 481.271,134.392 478.5,131.5C 480.259,130.246 481.759,130.579 483,132.5C 490.6,124.907 497.433,116.74 503.5,108C 502.586,106.594 501.92,105.094 501.5,103.5 Z"/></g>
<g><path style="opacity:1" fill="#033666" d="M 173.5,129.5 C 191.346,140.07 210.346,148.236 230.5,154C 240.922,158.449 249.755,164.949 257,173.5C 258.838,176.037 259.671,178.871 259.5,182C 258.061,189.589 256.228,197.089 254,204.5C 252.67,214.195 255.003,222.862 261,230.5C 265.435,235.774 270.602,240.107 276.5,243.5C 277.707,251.809 278.207,260.143 278,268.5C 275.978,269.786 273.811,270.786 271.5,271.5C 270.808,270.975 270.308,270.308 270,269.5C 269.667,265.167 269.333,260.833 269,256.5C 263.167,259.334 257,261 250.5,261.5C 250.348,254.773 252.348,248.773 256.5,243.5C 250.572,243.72 244.572,243.387 238.5,242.5C 238.898,237.86 240.898,233.693 244.5,230C 236.632,229.763 229.298,227.763 222.5,224C 225.833,219.333 229.833,215.333 234.5,212C 226.674,210.807 219.008,208.974 211.5,206.5C 214.651,202.849 217.984,199.349 221.5,196C 213.889,194.764 206.556,192.597 199.5,189.5C 199.615,186.142 201.281,183.309 204.5,181C 197.205,180.23 190.205,178.397 183.5,175.5C 182.417,174.635 182.251,173.635 183,172.5C 185.5,170 188,167.5 190.5,165C 182.763,164.313 176.263,161.147 171,155.5C 170.333,154.833 170.333,154.167 171,153.5C 174.155,150.333 177.988,148.499 182.5,148C 175.421,143.902 172.421,137.736 173.5,129.5 Z"/></g>
<g><path style="opacity:1" fill="#013565" d="M 326.5,133.5 C 368.502,129.749 406.835,139.583 441.5,163C 434.076,166.288 427.909,171.121 423,177.5C 421.427,180.477 420.594,183.643 420.5,187C 422.214,198.117 422.714,209.284 422,220.5C 419.194,230.308 412.86,236.308 403,238.5C 391.928,236.344 380.761,234.844 369.5,234C 367.791,223.543 366.125,213.043 364.5,202.5C 368.844,202.661 372.511,201.161 375.5,198C 372.086,197.703 368.753,197.036 365.5,196C 361.696,192.19 357.363,189.19 352.5,187C 345.101,186.152 337.767,186.485 330.5,188C 328.963,189.11 328.297,190.61 328.5,192.5C 317.932,192.867 314.432,197.867 318,207.5C 319.393,204.634 321.726,203.301 325,203.5C 335.999,204.506 339.665,210.173 336,220.5C 330.787,224.046 326.62,228.546 323.5,234C 311.813,235.3 300.147,236.3 288.5,237C 265.96,226.395 259.793,209.561 270,186.5C 271.854,174.707 268.02,165.207 258.5,158C 279.506,144.987 302.172,136.82 326.5,133.5 Z"/></g>
<g><path style="opacity:1" fill="#0f3c6b" d="M 539.5,137.5 C 543.943,143.66 548.443,149.993 553,156.5C 554.978,159.313 557.478,161.48 560.5,163C 558.295,165.54 555.795,167.707 553,169.5C 552.626,168.584 552.126,167.75 551.5,167C 552.687,165.981 553.687,164.814 554.5,163.5C 552.727,160.94 550.727,158.607 548.5,156.5C 540.809,162.692 532.976,168.692 525,174.5C 524.376,176.464 524.876,178.131 526.5,179.5C 526.167,179.833 525.833,180.167 525.5,180.5C 522.152,177.149 519.152,173.482 516.5,169.5C 517.716,168.904 519.049,168.737 520.5,169C 528.788,163.047 536.788,156.714 544.5,150C 542.595,148.185 540.928,146.185 539.5,144C 537.633,143.289 536.133,143.789 535,145.5C 534.308,144.975 533.808,144.308 533.5,143.5C 535.215,141.118 537.215,139.118 539.5,137.5 Z"/></g>
<g><path style="opacity:1" fill="#033666" d="M 521.5,143.5 C 522.851,151.955 519.517,158.122 511.5,162C 508.911,163.197 506.244,164.197 503.5,165C 506.538,167.703 509.205,170.703 511.5,174C 508.785,175.908 505.785,177.241 502.5,178C 497.825,178.797 493.159,179.63 488.5,180.5C 491.122,182.411 493.289,184.745 495,187.5C 495.688,188.332 495.521,188.998 494.5,189.5C 487.05,192.446 479.383,194.612 471.5,196C 475.833,199 479.5,202.667 482.5,207C 474.583,208.917 466.583,210.417 458.5,211.5C 463.645,214.811 467.978,218.978 471.5,224C 464.314,227.592 456.648,229.592 448.5,230C 451.783,233.397 454.449,237.23 456.5,241.5C 450.317,243.148 443.984,243.982 437.5,244C 440.985,249.287 442.985,255.12 443.5,261.5C 437.072,260.681 430.739,259.348 424.5,257.5C 424.647,262.214 424.314,266.881 423.5,271.5C 420.523,270.929 417.69,269.929 415,268.5C 414.169,260.812 414.335,253.145 415.5,245.5C 427.507,239.327 433.507,229.494 433.5,216C 432.408,206.847 431.908,197.68 432,188.5C 432.561,186.275 433.561,184.275 435,182.5C 440.555,177.945 446.388,173.779 452.5,170C 470.165,163.082 488.165,157.082 506.5,152C 512.181,150.165 517.181,147.332 521.5,143.5 Z"/></g>
<g><path style="opacity:1" fill="#222222" d="M -0.5,151.5 C 34.5,151.5 69.5,151.5 104.5,151.5C 84.3926,184.149 71.3926,219.483 65.5,257.5C 43.5,257.5 21.5,257.5 -0.5,257.5C -0.5,222.167 -0.5,186.833 -0.5,151.5 Z"/></g>
<g><path style="opacity:1" fill="#222222" d="M 588.5,151.5 C 631.167,151.5 673.833,151.5 716.5,151.5C 716.5,186.833 716.5,222.167 716.5,257.5C 686.833,257.5 657.167,257.5 627.5,257.5C 621.203,219.599 608.203,184.266 588.5,151.5 Z"/></g>
<g><path style="opacity:1" fill="#0c3b6a" d="M 129.5,170.5 C 132.714,171.44 135.714,172.94 138.5,175C 137.874,175.75 137.374,176.584 137,177.5C 135.867,175.789 134.367,175.289 132.5,176C 127.677,179.402 127.343,183.069 131.5,187C 137.64,185.026 143.807,182.859 150,180.5C 160.263,182.02 163.596,187.687 160,197.5C 156.623,199.774 154.789,202.607 154.5,206C 151.368,205.101 148.368,203.601 145.5,201.5C 146.691,199.227 148.358,198.893 150.5,200.5C 157.805,198.084 159.138,193.918 154.5,188C 153.167,187.333 151.833,187.333 150.5,188C 145.591,190.874 140.424,193.04 135,194.5C 126.273,193.719 122.94,189.052 125,180.5C 125.837,178.156 127.171,176.156 129,174.5C 129.49,173.207 129.657,171.873 129.5,170.5 Z"/></g>
<g><path style="opacity:1" fill="#123e6c" d="M 165.5,174.5 C 168.352,174.352 170.019,175.686 170.5,178.5C 168.167,183.833 165.833,183.833 163.5,178.5C 163.752,176.927 164.418,175.594 165.5,174.5 Z"/></g>
<g><path style="opacity:1" fill="#0e3c6a" d="M 557.5,189.5 C 576.187,190.336 583.021,199.669 578,217.5C 570.363,227.71 560.863,229.877 549.5,224C 538.686,213.369 539.019,203.036 550.5,193C 552.925,191.787 555.259,190.621 557.5,189.5 Z"/></g>
<g><path style="opacity:1" fill="#14416e" d="M 333.5,192.5 C 336.85,192.335 340.183,192.502 343.5,193C 339.867,195.128 336.201,195.461 332.5,194C 333.056,193.617 333.389,193.117 333.5,192.5 Z"/></g>
<g><path style="opacity:1" fill="#a91a2e" d="M 176.5,194.5 C 179.479,195.654 182.479,196.82 185.5,198C 150.482,256.126 145.982,316.626 172,379.5C 202.886,442.541 253.052,479.708 322.5,491C 391.471,497.133 448.638,474.299 494,422.5C 537.25,365.897 547.917,303.564 526,235.5C 521.412,223.825 515.912,212.658 509.5,202C 512.803,199.804 516.303,199.304 520,200.5C 551.324,258.392 554.991,318.059 531,379.5C 496.646,452.614 439.146,493.114 358.5,501C 285.226,503.608 226.726,475.775 183,417.5C 141.968,355.877 134.968,290.544 162,221.5C 166.337,212.155 171.17,203.155 176.5,194.5 Z"/></g>
<g><path style="opacity:1" fill="#f9fafb" d="M 558.5,197.5 C 563.628,197.112 568.628,197.612 573.5,199C 576.29,201.21 577.123,204.044 576,207.5C 571.254,217.292 563.421,221.458 552.5,220C 547.131,218.422 544.965,214.922 546,209.5C 548.744,203.921 552.911,199.921 558.5,197.5 Z"/></g>
<g><path style="opacity:1" fill="#123e6c" d="M 110.5,211.5 C 111.376,211.369 112.043,211.702 112.5,212.5C 111.754,213.736 111.421,215.07 111.5,216.5C 119.236,218.355 126.902,220.522 134.5,223C 142.958,228.326 144.791,235.493 140,244.5C 136.849,250.325 132.015,252.825 125.5,252C 118.344,249.837 111.178,247.671 104,245.5C 102.832,246.509 101.665,247.509 100.5,248.5C 100.529,243.371 101.863,238.371 104.5,233.5C 105.08,235.637 106.08,237.47 107.5,239C 115.122,241.322 122.789,243.489 130.5,245.5C 137.74,243.022 140.24,238.022 138,230.5C 137.167,229.667 136.333,228.833 135.5,228C 127.605,224.86 119.605,222.027 111.5,219.5C 110.5,220.833 109.5,222.167 108.5,223.5C 108.067,219.418 108.733,215.418 110.5,211.5 Z"/></g>
<g><path style="opacity:1" fill="#19426f" d="M 142.5,215.5 C 147.006,214.527 149.172,216.194 149,220.5C 145.507,223.502 143.007,222.835 141.5,218.5C 141.685,217.416 142.018,216.416 142.5,215.5 Z"/></g>
<g><path style="opacity:1" fill="#0f3c6b" d="M 585.5,227.5 C 586.497,227.47 587.164,227.97 587.5,229C 589.194,237.087 591.861,244.753 595.5,252C 592.625,253.302 589.625,254.135 586.5,254.5C 586.5,253.5 586.5,252.5 586.5,251.5C 587.5,251.5 588.5,251.5 589.5,251.5C 588.833,247.5 588.167,243.5 587.5,239.5C 583.207,240.656 578.874,241.656 574.5,242.5C 574.963,245.482 575.296,248.482 575.5,251.5C 577.288,251.215 578.955,251.548 580.5,252.5C 577.017,254.289 573.35,255.623 569.5,256.5C 569.624,254.048 570.624,252.048 572.5,250.5C 571.777,248.218 571.443,245.884 571.5,243.5C 566.532,244.659 561.532,245.659 556.5,246.5C 556.785,248.288 556.452,249.955 555.5,251.5C 553.064,246.653 552.064,241.653 552.5,236.5C 553.337,238.505 554.837,239.505 557,239.5C 566.537,237.241 576.037,234.907 585.5,232.5C 585.5,230.833 585.5,229.167 585.5,227.5 Z"/></g>
<g><path style="opacity:1" fill="#073867" d="M 329.5,237.5 C 356.469,236.636 383.136,238.97 409.5,244.5C 409.833,245.833 410.167,247.167 410.5,248.5C 409.485,261.816 408.818,275.149 408.5,288.5C 366.836,280.5 325.169,280.5 283.5,288.5C 283,273.831 282.833,259.165 283,244.5C 298.393,240.738 313.893,238.405 329.5,237.5 Z"/></g>
<g><path style="opacity:1" fill="#cad5df" d="M 329.5,243.5 C 330.882,244.801 332.548,245.634 334.5,246C 328.676,252.251 327.009,251.417 329.5,243.5 Z"/></g>
<g><path style="opacity:1" fill="#e5eaef" d="M 345.5,243.5 C 346.683,244.504 348.016,245.338 349.5,246C 348.809,247.067 348.309,248.234 348,249.5C 347,248.167 346,248.167 345,249.5C 344.682,247.939 343.849,246.772 342.5,246C 344.119,245.764 345.119,244.931 345.5,243.5 Z"/></g>
<g><path style="opacity:1" fill="#cfdae2" d="M 361.5,244.5 C 362.683,245.504 364.016,246.338 365.5,247C 364.809,248.067 364.309,249.234 364,250.5C 361.638,249.648 359.805,248.148 358.5,246C 359.737,245.768 360.737,245.268 361.5,244.5 Z"/></g>
<g><path style="opacity:1" fill="#cfd9e2" d="M 313.5,244.5 C 314.316,246.144 315.65,247.31 317.5,248C 316.167,249 316.167,250 317.5,251C 316.551,251.617 315.718,251.451 315,250.5C 314.333,251.167 313.667,251.833 313,252.5C 312.801,250.598 311.967,249.098 310.5,248C 311.448,247.517 312.448,247.351 313.5,247.5C 313.5,246.5 313.5,245.5 313.5,244.5 Z"/></g>
<g><path style="opacity:1" fill="#c8d3de" d="M 378.5,244.5 C 379.404,245.209 379.737,246.209 379.5,247.5C 380.552,247.351 381.552,247.517 382.5,248C 379.732,248.708 378.899,250.208 380,252.5C 379.333,251.833 378.667,251.167 378,250.5C 377.282,251.451 376.449,251.617 375.5,251C 376.833,250 376.833,249 375.5,248C 377.056,247.28 378.056,246.113 378.5,244.5 Z"/></g>
<g><path style="opacity:1" fill="#ccd7e0" d="M 297.5,246.5 C 298.79,247.058 299.623,248.058 300,249.5C 300.718,248.549 301.551,248.383 302.5,249C 301,251.167 299.167,253 297,254.5C 296.383,253.551 296.549,252.718 297.5,252C 293.764,250.493 293.764,249.66 297.5,249.5C 297.5,248.5 297.5,247.5 297.5,246.5 Z"/></g>
<g><path style="opacity:1" fill="#cdd7e1" d="M 394.5,246.5 C 395.404,247.209 395.737,248.209 395.5,249.5C 396.552,249.351 397.552,249.517 398.5,250C 397,250.833 395.833,252 395,253.5C 393.697,252.888 392.53,252.554 391.5,252.5C 392.641,251.575 392.641,250.741 391.5,250C 393.056,249.28 394.056,248.113 394.5,246.5 Z"/></g>
<g><path style="opacity:1" fill="#043766" d="M 236.5,385.5 C 237.906,387.578 239.239,389.745 240.5,392C 243.681,393.992 247.014,395.825 250.5,397.5C 252.945,396.722 254.278,395.055 254.5,392.5C 253.351,390.203 252.185,387.87 251,385.5C 250.535,386.931 249.701,388.097 248.5,389C 249.563,390.188 250.897,390.688 252.5,390.5C 252.5,391.833 252.5,393.167 252.5,394.5C 250.5,394.5 248.5,394.5 246.5,394.5C 246.66,392.801 246.494,391.134 246,389.5C 241.167,391.333 239.667,389.833 241.5,385C 240.207,384.51 238.873,384.343 237.5,384.5C 235.73,381.557 236.396,379.557 239.5,378.5C 240.713,378.747 241.38,379.414 241.5,380.5C 242.002,382.085 243.002,382.585 244.5,382C 243.594,380.301 243.261,378.467 243.5,376.5C 246.703,374.914 250.203,374.247 254,374.5C 256.833,374.833 259.667,375.167 262.5,375.5C 263.146,377.977 264.646,379.644 267,380.5C 272.233,379.444 277.233,377.777 282,375.5C 281.782,377.587 281.949,379.587 282.5,381.5C 285.833,379.5 289.167,377.5 292.5,375.5C 292.997,377.216 293.331,378.883 293.5,380.5C 298.186,378.132 302.853,375.799 307.5,373.5C 309.541,374.236 311.541,375.069 313.5,376C 308.865,381.268 305.532,387.268 303.5,394C 306.332,394.212 308.998,394.379 311.5,394.5C 309.514,398.38 309.181,402.38 310.5,406.5C 312.811,405.786 314.978,404.786 317,403.5C 317.119,408.282 317.785,412.949 319,417.5C 321.667,415.5 324.333,413.5 327,411.5C 328.35,415.91 329.85,420.243 331.5,424.5C 334.194,422.473 336.527,420.139 338.5,417.5C 340.34,421.855 342.673,425.855 345.5,429.5C 348.342,425.819 350.675,421.819 352.5,417.5C 355.008,419.877 357.508,422.211 360,424.5C 361.654,420.216 363.154,415.882 364.5,411.5C 366.884,413.885 369.55,415.885 372.5,417.5C 373.386,416.675 373.719,415.675 373.5,414.5C 374.167,411.167 374.833,407.833 375.5,404.5C 377.612,405.594 379.779,406.594 382,407.5C 382.051,402.774 381.717,398.107 381,393.5C 383.041,394.423 385.208,394.756 387.5,394.5C 386.098,387.696 383.098,381.696 378.5,376.5C 380.42,375.024 382.587,374.024 385,373.5C 390.105,376.146 395.272,378.312 400.5,380C 399.833,378.667 399.167,377.333 398.5,376C 399,375.833 399.5,375.667 400,375.5C 403.189,377.865 406.689,379.532 410.5,380.5C 410.193,378.554 410.193,376.887 410.5,375.5C 416.058,376.978 421.558,378.645 427,380.5C 427.772,380.355 428.439,380.022 429,379.5C 429.45,377.481 430.283,375.648 431.5,374C 436.167,373.333 440.833,373.333 445.5,374C 446.964,375.864 447.964,378.031 448.5,380.5C 449.386,379.675 449.719,378.675 449.5,377.5C 453.903,376.893 455.236,378.56 453.5,382.5C 452.271,383.281 450.938,383.781 449.5,384C 450.86,385.938 450.527,387.604 448.5,389C 446.633,389.711 445.133,389.211 444,387.5C 445.243,390.96 443.909,392.96 440,393.5C 439.228,393.355 438.561,393.022 438,392.5C 437.667,391.167 437.333,389.833 437,388.5C 435.932,395.055 438.432,396.888 444.5,394C 445.191,392.933 445.691,391.766 446,390.5C 449.397,391.66 451.564,390.327 452.5,386.5C 452.291,385.914 451.957,385.414 451.5,385C 454.645,384.559 456.312,382.725 456.5,379.5C 456.41,377.575 455.41,376.408 453.5,376C 454.044,375.283 454.711,374.783 455.5,374.5C 456.167,375.167 456.833,375.833 457.5,376.5C 471.267,370.117 484.934,363.45 498.5,356.5C 499.192,357.025 499.692,357.692 500,358.5C 501.351,356.981 502.851,355.648 504.5,354.5C 505.803,356.478 507.469,356.478 509.5,354.5C 509.291,353.914 508.957,353.414 508.5,353C 522.699,348.246 523.865,350.079 512,358.5C 511.692,357.692 511.192,357.025 510.5,356.5C 508.004,357.58 505.67,358.914 503.5,360.5C 473.437,430.562 420.103,466.895 343.5,469.5C 293.35,467.811 252.017,448.145 219.5,410.5C 224.196,402.808 224.696,394.808 221,386.5C 222.57,395.981 220.57,404.648 215,412.5C 214.282,413.451 213.449,413.617 212.5,413C 210.061,408.171 208.895,403.004 209,397.5C 208.311,396.643 207.478,395.977 206.5,395.5C 204.711,396.877 202.711,397.877 200.5,398.5C 199.808,397.975 199.308,397.308 199,396.5C 198.681,392.761 199.181,389.094 200.5,385.5C 200.42,383.67 199.587,382.337 198,381.5C 194.944,382.077 191.944,382.743 189,383.5C 188.632,378.863 190.466,375.363 194.5,373C 189.23,372.98 184.23,371.98 179.5,370C 183.167,367.833 186.833,365.667 190.5,363.5C 183.163,362.83 176.83,359.997 171.5,355C 175.281,353.173 179.281,352.173 183.5,352C 176.528,350.716 171.862,346.883 169.5,340.5C 173.833,340.5 178.167,340.5 182.5,340.5C 182.5,339.5 182.5,338.5 182.5,337.5C 172.75,337.081 167.083,332.081 165.5,322.5C 170.245,322.478 174.745,323.478 179,325.5C 179.667,323.5 179.667,321.5 179,319.5C 171.642,312.759 168.642,304.426 170,294.5C 172.667,296.5 175.333,298.5 178,300.5C 178.423,284.591 180.923,269.091 185.5,254C 191.26,253.398 196.927,252.731 202.5,252C 196.415,256.315 192.415,262.148 190.5,269.5C 193.446,270.655 196.446,270.821 199.5,270C 204.014,268.825 208.348,267.492 212.5,266C 207.798,271.27 205.131,277.437 204.5,284.5C 211.393,284.037 217.559,281.703 223,277.5C 220.896,283.318 219.063,289.318 217.5,295.5C 224.57,294.867 230.737,292.201 236,287.5C 235.436,290.526 234.436,293.526 233,296.5C 232.501,300.152 232.335,303.818 232.5,307.5C 238.717,306.308 244.217,303.641 249,299.5C 248.035,304.39 247.201,309.39 246.5,314.5C 246.833,316.167 247.167,317.833 247.5,319.5C 253.256,317.536 258.09,314.203 262,309.5C 261.661,314.773 261.494,320.107 261.5,325.5C 267.182,324.657 271.349,321.657 274,316.5C 273.709,321.144 273.709,325.811 274,330.5C 274.333,331.167 274.667,331.833 275,332.5C 277.333,331.167 279.667,329.833 282,328.5C 281.959,334.307 283.125,339.807 285.5,345C 282.022,349.482 277.688,352.816 272.5,355C 274.001,356.252 275.668,357.252 277.5,358C 273.941,359.63 270.608,361.63 267.5,364C 269.087,364.862 270.754,365.529 272.5,366C 268.185,368.773 263.518,370.773 258.5,372C 253.054,372.101 247.721,372.768 242.5,374C 240.637,376.516 238.137,378.016 235,378.5C 234.174,381.212 234.674,383.545 236.5,385.5 Z"/></g>
<g><path style="opacity:1" fill="#063867" d="M 513.5,288.5 C 513.17,294.868 513.504,301.202 514.5,307.5C 515.107,307.376 515.44,307.043 515.5,306.5C 516.625,304.871 517.959,303.371 519.5,302C 517.109,301.309 517.109,300.309 519.5,299C 522.603,297.561 525.436,295.727 528,293.5C 528.167,293.833 528.333,294.167 528.5,294.5C 526.58,297.339 524.913,300.339 523.5,303.5C 519.881,304.533 516.715,306.866 514,310.5C 513.503,312.81 513.337,315.143 513.5,317.5C 512.508,317.328 511.842,317.662 511.5,318.5C 507.86,320.32 504.193,322.153 500.5,324C 501.5,324.333 502.5,324.667 503.5,325C 492.302,335.367 481.302,345.867 470.5,356.5C 469.833,356.5 469.167,356.5 468.5,356.5C 479.44,343.555 490.774,330.889 502.5,318.5C 503.833,318.167 505.167,317.833 506.5,317.5C 507.747,314.671 509.247,312.005 511,309.5C 511.688,308.668 511.521,308.002 510.5,307.5C 507.301,309.864 503.968,312.03 500.5,314C 501.956,314.423 502.456,315.256 502,316.5C 492.967,326.365 483.8,336.031 474.5,345.5C 474.5,344.833 474.5,344.167 474.5,343.5C 484.786,330.042 495.286,316.709 506,303.5C 506.333,304.5 506.667,305.5 507,306.5C 509.013,302.167 510.68,297.834 512,293.5C 508.642,296.358 505.142,299.025 501.5,301.5C 502.025,302.192 502.692,302.692 503.5,303C 497.952,309.709 492.619,316.542 487.5,323.5C 486.662,323.158 486.328,322.492 486.5,321.5C 487.34,318.826 487.84,316.159 488,313.5C 484.87,315.628 482.037,318.128 479.5,321C 480.956,321.423 481.456,322.256 481,323.5C 475.144,331.9 469.311,340.233 463.5,348.5C 463.5,347.5 463.5,346.5 463.5,345.5C 468.383,334.733 473.55,324.066 479,313.5C 479.667,312.167 480.333,312.167 481,313.5C 485.668,301.232 484.002,299.899 476,309.5C 475.689,310.742 476.189,311.742 477.5,312.5C 467.833,331.833 458.167,351.167 448.5,370.5C 447.833,370.833 447.167,371.167 446.5,371.5C 440.196,370.747 433.863,370.247 427.5,370C 424.816,369.222 422.483,367.889 420.5,366C 422.246,365.529 423.913,364.862 425.5,364C 422.167,362 418.833,360 415.5,358C 417.087,357.138 418.754,356.471 420.5,356C 415.14,353.495 410.807,349.829 407.5,345C 409.497,339.676 410.664,334.176 411,328.5C 413.185,330.54 415.685,331.874 418.5,332.5C 419.608,327.462 419.775,322.462 419,317.5C 422.337,321.578 426.503,324.245 431.5,325.5C 431.655,319.364 431.155,313.364 430,307.5C 433.929,313.546 439.429,317.213 446.5,318.5C 446.404,311.534 445.237,304.867 443,298.5C 447.677,303.755 453.51,306.755 460.5,307.5C 460.923,300.941 459.59,294.774 456.5,289C 459.826,291.172 463.493,293.172 467.5,295C 469.74,295.977 472.073,296.477 474.5,296.5C 474.599,289.631 472.599,283.465 468.5,278C 472.523,280.276 476.857,282.276 481.5,284C 483.81,284.497 486.143,284.663 488.5,284.5C 488.216,277.809 485.883,271.976 481.5,267C 484.179,267.218 486.845,267.885 489.5,269C 493.821,269.499 498.154,269.666 502.5,269.5C 502.201,265.895 501.035,262.561 499,259.5C 496.5,257 494,254.5 491.5,252C 496.862,252.282 502.195,253.115 507.5,254.5C 511.225,265.517 513.225,276.85 513.5,288.5 Z"/></g>
<g><path style="opacity:1" fill="#e3e9ee" d="M 338.5,255.5 C 339.534,256.687 340.867,257.52 342.5,258C 340.519,258.605 340.185,259.605 341.5,261C 340.551,261.617 339.718,261.451 339,260.5C 336.67,263.182 336.17,262.849 337.5,259.5C 336.975,258.808 336.308,258.308 335.5,258C 337.119,257.764 338.119,256.931 338.5,255.5 Z"/></g>
<g><path style="opacity:1" fill="#dae2e9" d="M 353.5,255.5 C 355.084,256.382 356.751,257.215 358.5,258C 357.23,258.9 356.23,260.066 355.5,261.5C 354.575,260.359 353.741,260.359 353,261.5C 352.691,260.234 352.191,259.067 351.5,258C 352.756,257.583 353.423,256.75 353.5,255.5 Z"/></g>
<g><path style="opacity:1" fill="#dee5eb" d="M 323.5,256.5 C 324.309,257.469 325.309,258.302 326.5,259C 325.167,260 325.167,261 326.5,262C 325.551,262.617 324.718,262.451 324,261.5C 321.67,264.182 321.17,263.849 322.5,260.5C 321.975,259.808 321.308,259.308 320.5,259C 321.942,258.623 322.942,257.79 323.5,256.5 Z"/></g>
<g><path style="opacity:1" fill="#e0e7ed" d="M 369.5,255.5 C 370.404,256.209 370.737,257.209 370.5,258.5C 371.552,258.351 372.552,258.517 373.5,259C 372.151,259.772 371.318,260.939 371,262.5C 370,261.167 369,261.167 368,262.5C 367.691,261.234 367.191,260.067 366.5,259C 368.426,258.578 369.426,257.411 369.5,255.5 Z"/></g>
<g><path style="opacity:1" fill="#262626" d="M -0.5,257.5 C 21.5,257.5 43.5,257.5 65.5,257.5C 61.5468,286.482 61.5468,315.482 65.5,344.5C 43.7309,342.528 21.7309,341.861 -0.5,342.5C -0.5,314.167 -0.5,285.833 -0.5,257.5 Z"/></g>
<g><path style="opacity:1" fill="#262626" d="M 627.5,257.5 C 657.167,257.5 686.833,257.5 716.5,257.5C 716.5,285.833 716.5,314.167 716.5,342.5C 686.833,342.5 657.167,342.5 627.5,342.5C 631.5,314.167 631.5,285.833 627.5,257.5 Z"/></g>
<g><path style="opacity:1" fill="#d3dce5" d="M 307.5,257.5 C 308.683,258.504 310.016,259.338 311.5,260C 310.788,261.425 310.621,262.925 311,264.5C 309.667,263.167 308.333,263.167 307,264.5C 306.691,263.234 306.191,262.067 305.5,261C 306.973,260.29 307.64,259.124 307.5,257.5 Z"/></g>
<g><path style="opacity:1" fill="#c6d2dd" d="M 292.5,259.5 C 293.83,260.832 295.497,261.665 297.5,262C 295.606,263.079 295.273,264.413 296.5,266C 295.551,266.617 294.718,266.451 294,265.5C 293.333,266.167 292.667,266.833 292,267.5C 291.801,265.598 290.967,264.098 289.5,263C 290.448,262.517 291.448,262.351 292.5,262.5C 292.5,261.5 292.5,260.5 292.5,259.5 Z"/></g>
<g><path style="opacity:1" fill="#d8e0e7" d="M 384.5,257.5 C 385.404,258.209 385.737,259.209 385.5,260.5C 386.552,260.351 387.552,260.517 388.5,261C 387.151,261.772 386.318,262.939 386,264.5C 384.989,263.663 383.822,263.33 382.5,263.5C 382.67,262.178 382.337,261.011 381.5,260C 383.119,259.764 384.119,258.931 384.5,257.5 Z"/></g>
<g><path style="opacity:1" fill="#ccd7e0" d="M 400.5,259.5 C 401.186,260.848 402.186,262.015 403.5,263C 402.299,263.903 401.465,265.069 401,266.5C 400,265.167 399,265.167 398,266.5C 397.383,265.551 397.549,264.718 398.5,264C 395.723,261.827 395.89,261.327 399,262.5C 399.513,261.473 400.013,260.473 400.5,259.5 Z"/></g>
<g><path style="opacity:1" fill="#e1e7ed" d="M 346.5,268.5 C 347.186,269.848 348.186,271.015 349.5,272C 348.788,273.425 348.621,274.925 349,276.5C 347.167,275 345.333,273.5 343.5,272C 344.448,271.517 345.448,271.351 346.5,271.5C 346.5,270.5 346.5,269.5 346.5,268.5 Z"/></g>
<g><path style="opacity:1" fill="#e5ebef" d="M 315.5,270.5 C 316.534,271.687 317.867,272.52 319.5,273C 318.663,274.011 318.33,275.178 318.5,276.5C 317.178,276.33 316.011,276.663 315,277.5C 314.691,276.234 314.191,275.067 313.5,274C 314.973,273.29 315.64,272.124 315.5,270.5 Z"/></g>
<g><path style="opacity:1" fill="#cad5df" d="M 330.5,270.5 C 332.179,270.892 333.846,271.392 335.5,272C 334.027,272.71 333.36,273.876 333.5,275.5C 332.178,275.33 331.011,275.663 330,276.5C 329.727,274.671 328.893,273.171 327.5,272C 328.737,271.768 329.737,271.268 330.5,270.5 Z"/></g>
<g><path style="opacity:1" fill="#c0ced9" d="M 361.5,270.5 C 363.086,271.148 364.753,271.648 366.5,272C 365.107,273.171 364.273,274.671 364,276.5C 362.667,273.833 361.333,273.833 360,276.5C 359.383,275.551 359.549,274.718 360.5,274C 358.042,272.267 358.375,271.1 361.5,270.5 Z"/></g>
<g><path style="opacity:1" fill="#d6dfe7" d="M 377.5,270.5 C 378.186,271.848 379.186,273.015 380.5,274C 379.809,275.067 379.309,276.234 379,277.5C 376.638,276.648 374.805,275.148 373.5,273C 375.437,272.878 376.77,272.045 377.5,270.5 Z"/></g>
<g><path style="opacity:1" fill="#dbe3e9" d="M 300.5,273.5 C 304.107,273.825 304.774,274.992 302.5,277C 302.833,277.333 303.167,277.667 303.5,278C 302.234,278.309 301.067,278.809 300,279.5C 299.682,277.939 298.849,276.772 297.5,276C 298.942,275.623 299.942,274.79 300.5,273.5 Z"/></g>
<g><path style="opacity:1" fill="#dfe6ec" d="M 392.5,272.5 C 393.404,273.209 393.737,274.209 393.5,275.5C 394.552,275.351 395.552,275.517 396.5,276C 395.151,276.772 394.318,277.939 394,279.5C 392.933,278.809 391.766,278.309 390.5,278C 391.458,276.853 391.125,275.853 389.5,275C 391.119,274.764 392.119,273.931 392.5,272.5 Z"/></g>
<g><path style="opacity:1" fill="#066ca8" d="M 343.5,286.5 C 343.829,300.344 343.496,314.01 342.5,327.5C 341.492,325.661 339.992,324.328 338,323.5C 337.64,321.579 336.806,319.912 335.5,318.5C 331.63,317.132 328.464,314.798 326,311.5C 324.066,314.688 321.232,316.188 317.5,316C 314.667,321.5 310.5,325.667 305,328.5C 303.291,331.418 301.458,334.252 299.5,337C 297.598,338.651 295.598,338.984 293.5,338C 292.044,339.745 290.711,341.578 289.5,343.5C 288.104,341.028 287.27,338.362 287,335.5C 286.046,321.168 285.212,306.834 284.5,292.5C 303.933,288.339 323.6,286.339 343.5,286.5 Z"/></g>
<g><path style="opacity:1" fill="#4c97c1" d="M 343.5,286.5 C 344.826,300.339 344.826,314.339 343.5,328.5C 342.893,328.376 342.56,328.043 342.5,327.5C 343.496,314.01 343.829,300.344 343.5,286.5 Z"/></g>
<g><path style="opacity:1" fill="#086da9" d="M 348.5,286.5 C 368.708,286.526 388.708,288.526 408.5,292.5C 408.799,294.604 408.466,296.604 407.5,298.5C 403.703,300.467 400.036,302.634 396.5,305C 391.581,305.714 387.247,304.381 383.5,301C 379.259,299.543 374.926,299.209 370.5,300C 353.531,310.364 346.197,305.864 348.5,286.5 Z"/></g>
<g><path style="opacity:1" fill="#f2f5f7" d="M 191.5,291.5 C 195.737,300.668 194.404,309.335 187.5,317.5C 186.947,312.402 185.28,307.735 182.5,303.5C 184.061,298.36 187.061,294.36 191.5,291.5 Z"/></g>
<g><path style="opacity:1" fill="#41698c" d="M 513.5,288.5 C 514.167,294.5 514.833,300.5 515.5,306.5C 515.44,307.043 515.107,307.376 514.5,307.5C 513.504,301.202 513.17,294.868 513.5,288.5 Z"/></g>
<g><path style="opacity:1" fill="#053767" d="M 372.5,306.5 C 377.814,305.99 382.48,307.49 386.5,311C 394.341,313.983 401.174,312.483 407,306.5C 407.491,311.91 406.991,317.243 405.5,322.5C 402.22,325.626 398.386,327.626 394,328.5C 388.008,326.094 381.842,324.094 375.5,322.5C 373.077,322.594 370.744,323.094 368.5,324C 365.107,326.363 361.44,328.196 357.5,329.5C 354.236,329.026 351.402,327.693 349,325.5C 348.333,320.5 348.333,315.5 349,310.5C 357.642,313.971 365.475,312.638 372.5,306.5 Z"/></g>
<g><path style="opacity:1" fill="#d1dbe4" d="M 185.5,319.5 C 181.697,313.544 178.197,307.544 175,301.5C 180.826,306.156 184.326,312.156 185.5,319.5 Z"/></g>
<g><path style="opacity:1" fill="#f8f9fa" d="M 202.5,311.5 C 206.982,322.722 203.982,331.722 193.5,338.5C 192.808,337.975 192.308,337.308 192,336.5C 190.62,330.007 191.62,324.007 195,318.5C 197.396,315.933 199.896,313.6 202.5,311.5 Z"/></g>
<g><path style="opacity:1" fill="#e6ebf0" d="M 486.5,321.5 C 485.842,322.398 485.176,323.398 484.5,324.5C 483.575,323.359 482.741,323.359 482,324.5C 475.583,335.003 468.916,345.337 462,355.5C 461.346,356.696 460.846,356.696 460.5,355.5C 461.788,353.261 462.788,350.928 463.5,348.5C 469.311,340.233 475.144,331.9 481,323.5C 481.456,322.256 480.956,321.423 479.5,321C 482.037,318.128 484.87,315.628 488,313.5C 487.84,316.159 487.34,318.826 486.5,321.5 Z"/></g>
<g><path style="opacity:1" fill="#e6ebf0" d="M 185.5,319.5 C 188.966,320.109 189.966,321.942 188.5,325C 183.289,325.546 182.289,323.713 185.5,319.5 Z"/></g>
<g><path style="opacity:1" fill="#103d6b" d="M 558.5,325.5 C 565.196,338.142 575.863,344.809 590.5,345.5C 590.5,344.167 590.5,342.833 590.5,341.5C 591.5,341.5 592.5,341.5 593.5,341.5C 593.02,347.046 591.687,352.38 589.5,357.5C 588.548,355.955 588.215,354.288 588.5,352.5C 583.548,352.091 578.715,351.091 574,349.5C 567.775,352.029 561.608,354.696 555.5,357.5C 554.052,361.257 553.052,361.257 552.5,357.5C 553.298,353.511 553.965,349.511 554.5,345.5C 555.675,345.281 556.675,345.614 557.5,346.5C 556.674,347.451 556.508,348.451 557,349.5C 561.485,348.171 565.652,346.171 569.5,343.5C 566.182,340.683 563.015,337.683 560,334.5C 559.077,335.759 558.243,337.092 557.5,338.5C 557.167,337.833 556.833,337.167 556.5,336.5C 557.426,332.87 558.093,329.203 558.5,325.5 Z"/></g>
<g><path style="opacity:1" fill="#0e3c6a" d="M 131.5,327.5 C 132.75,327.577 133.583,328.244 134,329.5C 134.754,333.351 135.588,337.184 136.5,341C 136.167,341.833 135.833,342.667 135.5,343.5C 134.571,342.311 134.238,340.978 134.5,339.5C 129.484,340.504 124.484,341.67 119.5,343C 121.536,348.307 123.036,353.807 124,359.5C 124.414,359.957 124.914,360.291 125.5,360.5C 129.932,359.416 134.266,358.082 138.5,356.5C 137.355,355.109 137.355,353.776 138.5,352.5C 140.645,356.702 141.979,361.202 142.5,366C 142.167,366.833 141.833,367.667 141.5,368.5C 140.571,367.311 140.238,365.978 140.5,364.5C 129.84,366.832 119.173,369.166 108.5,371.5C 108.421,372.93 108.754,374.264 109.5,375.5C 108.675,376.386 107.675,376.719 106.5,376.5C 105.821,371.941 104.821,367.441 103.5,363C 103.833,362.5 104.167,362 104.5,361.5C 105.27,363.272 106.603,364.272 108.5,364.5C 112.131,363.509 115.798,362.676 119.5,362C 120.164,355.491 118.83,349.325 115.5,343.5C 111.217,344.814 106.884,345.814 102.5,346.5C 102.785,348.288 102.452,349.955 101.5,351.5C 99.3439,346.573 98.3439,341.573 98.5,336.5C 99.2697,338.272 100.603,339.272 102.5,339.5C 111.542,337.49 120.542,335.323 129.5,333C 131.192,331.599 131.859,329.766 131.5,327.5 Z"/></g>
<g><path style="opacity:1" fill="#edf0f4" d="M 209.5,327.5 C 213.328,332.476 214.828,338.142 214,344.5C 212.444,349.28 210.111,353.613 207,357.5C 206.478,349.794 206.478,342.127 207,334.5C 206.138,336.087 205.471,337.754 205,339.5C 204.667,344.5 204.333,349.5 204,354.5C 202.951,352.893 201.451,352.227 199.5,352.5C 199.716,342.838 203.05,334.504 209.5,327.5 Z"/></g>
<g><path style="opacity:1" fill="#096da9" d="M 372.5,329.5 C 374.857,329.337 377.19,329.503 379.5,330C 387.72,336.641 396.22,337.141 405,331.5C 405.397,338.32 403.73,344.654 400,350.5C 396.744,352.429 393.244,352.929 389.5,352C 383.229,346.684 376.229,345.351 368.5,348C 365.107,350.363 361.44,352.196 357.5,353.5C 354.515,353.007 351.848,351.84 349.5,350C 348.361,344.584 348.194,339.084 349,333.5C 352.423,336.18 356.256,337.013 360.5,336C 365.01,334.582 369.01,332.415 372.5,329.5 Z"/></g>
<g><path style="opacity:1" fill="#e0e6ec" d="M 474.5,343.5 C 472.901,345.604 471.068,347.604 469,349.5C 468.333,348.833 468.333,348.167 469,347.5C 474.999,339.339 481.166,331.339 487.5,323.5C 492.619,316.542 497.952,309.709 503.5,303C 502.692,302.692 502.025,302.192 501.5,301.5C 505.142,299.025 508.642,296.358 512,293.5C 510.68,297.834 509.013,302.167 507,306.5C 506.667,305.5 506.333,304.5 506,303.5C 495.286,316.709 484.786,330.042 474.5,343.5 Z"/></g>
<g><path style="opacity:1" fill="#e3e9ee" d="M 468.5,356.5 C 463.482,361.018 458.649,365.685 454,370.5C 453.333,369.833 453.333,369.167 454,368.5C 461.041,360.962 467.874,353.296 474.5,345.5C 483.8,336.031 492.967,326.365 502,316.5C 502.456,315.256 501.956,314.423 500.5,314C 503.968,312.03 507.301,309.864 510.5,307.5C 511.521,308.002 511.688,308.668 511,309.5C 509.247,312.005 507.747,314.671 506.5,317.5C 505.167,317.833 503.833,318.167 502.5,318.5C 490.774,330.889 479.44,343.555 468.5,356.5 Z"/></g>
<g><path style="opacity:1" fill="#f0f3f6" d="M 223.5,333.5 C 224.406,337.678 225.24,342.012 226,346.5C 229.025,341.962 233.191,339.296 238.5,338.5C 238.499,349.502 233.999,358.169 225,364.5C 224.252,362.668 223.252,361.001 222,359.5C 220.623,361.754 219.123,363.92 217.5,366C 214.763,367.08 213.096,366.246 212.5,363.5C 213.5,361.5 214.5,359.5 215.5,357.5C 213.588,347.902 216.255,339.902 223.5,333.5 Z"/></g>
<g><path style="opacity:1" fill="#e1e8ed" d="M 511.5,318.5 C 511.938,318.435 512.272,318.601 512.5,319C 509.963,321.906 507.796,325.073 506,328.5C 505.586,328.043 505.086,327.709 504.5,327.5C 495.017,335.815 485.684,344.315 476.5,353C 474.376,354.122 472.543,355.622 471,357.5C 470.601,357.272 470.435,356.938 470.5,356.5C 481.302,345.867 492.302,335.367 503.5,325C 502.5,324.667 501.5,324.333 500.5,324C 504.193,322.153 507.86,320.32 511.5,318.5 Z"/></g>
<g><path style="opacity:1" fill="#dae2e9" d="M 170.5,326.5 C 170.735,325.903 171.235,325.57 172,325.5C 180.207,327.883 186.04,332.883 189.5,340.5C 185.591,341.263 184.258,339.93 185.5,336.5C 181.34,331.919 176.34,328.586 170.5,326.5 Z"/></g>
<g><path style="opacity:1" fill="#194370" d="M 457.5,376.5 C 456.833,375.833 456.167,375.167 455.5,374.5C 470.813,362.031 486.313,349.697 502,337.5C 502.333,338.167 502.667,338.833 503,339.5C 513.768,327.946 512.268,326.446 498.5,335C 499.167,335.333 499.833,335.667 500.5,336C 484,349.167 467.5,362.333 451,375.5C 450.308,374.975 449.808,374.308 449.5,373.5C 454.213,364.075 458.879,354.741 463.5,345.5C 463.5,346.5 463.5,347.5 463.5,348.5C 462.788,350.928 461.788,353.261 460.5,355.5C 460.846,356.696 461.346,356.696 462,355.5C 468.916,345.337 475.583,335.003 482,324.5C 482.741,323.359 483.575,323.359 484.5,324.5C 485.176,323.398 485.842,322.398 486.5,321.5C 486.328,322.492 486.662,323.158 487.5,323.5C 481.166,331.339 474.999,339.339 469,347.5C 468.333,348.167 468.333,348.833 469,349.5C 471.068,347.604 472.901,345.604 474.5,343.5C 474.5,344.167 474.5,344.833 474.5,345.5C 467.874,353.296 461.041,360.962 454,368.5C 453.333,369.167 453.333,369.833 454,370.5C 458.649,365.685 463.482,361.018 468.5,356.5C 469.167,356.5 469.833,356.5 470.5,356.5C 470.435,356.938 470.601,357.272 471,357.5C 472.543,355.622 474.376,354.122 476.5,353C 485.684,344.315 495.017,335.815 504.5,327.5C 505.086,327.709 505.586,328.043 506,328.5C 507.796,325.073 509.963,321.906 512.5,319C 512.272,318.601 511.938,318.435 511.5,318.5C 511.842,317.662 512.508,317.328 513.5,317.5C 513.281,318.675 513.614,319.675 514.5,320.5C 515.981,319.52 517.315,318.353 518.5,317C 517.692,316.692 517.025,316.192 516.5,315.5C 520.51,313.779 524.344,311.779 528,309.5C 526.488,313.486 524.155,317.152 521,320.5C 520.667,319.833 520.333,319.167 520,318.5C 513.865,321.278 511.198,325.945 512,332.5C 513.255,331.789 514.421,330.956 515.5,330C 515.043,329.586 514.709,329.086 514.5,328.5C 528.8,321.886 529.966,323.553 518,333.5C 517.667,332.833 517.333,332.167 517,331.5C 515.167,332.667 513.333,333.833 511.5,335C 510.62,336.356 510.286,337.856 510.5,339.5C 506.43,340.356 502.43,341.523 498.5,343C 500.271,343.535 500.604,344.369 499.5,345.5C 488.697,352.471 478.03,359.637 467.5,367C 479.146,361.664 490.146,354.998 500.5,347C 501.744,346.544 502.577,347.044 503,348.5C 504.667,346.833 506.333,345.167 508,343.5C 509.049,344.517 510.216,344.684 511.5,344C 512.328,343.085 513.328,342.419 514.5,342C 513.007,340.844 513.174,340.01 515,339.5C 518.539,338.406 522.039,337.572 525.5,337C 522.667,339.833 519.833,342.667 517,345.5C 516.692,344.692 516.192,344.025 515.5,343.5C 497.787,354.381 478.787,364.548 458.5,374C 457.748,374.671 457.414,375.504 457.5,376.5 Z"/></g>
<g><path style="opacity:1" fill="#dde4ea" d="M 192.5,340.5 C 197.493,340.997 198.493,343.164 195.5,347C 190.382,346.824 189.382,344.658 192.5,340.5 Z"/></g>
<g><path style="opacity:1" fill="#222222" d="M -0.5,342.5 C 21.7309,341.861 43.7309,342.528 65.5,344.5C 70.4329,374.964 79.7662,403.964 93.5,431.5C 92.5266,431.013 91.5266,430.513 90.5,430C 91.6405,429.259 91.6405,428.425 90.5,427.5C 60.174,426.5 29.8407,426.167 -0.5,426.5C -0.5,398.5 -0.5,370.5 -0.5,342.5 Z"/></g>
<g><path style="opacity:1" fill="#222222" d="M 627.5,342.5 C 657.167,342.5 686.833,342.5 716.5,342.5C 716.5,370.5 716.5,398.5 716.5,426.5C 678.167,426.5 639.833,426.5 601.5,426.5C 614.197,399.766 622.864,371.766 627.5,342.5 Z"/></g>
<g><path style="opacity:1" fill="#bfcdd9" d="M 178.5,344.5 C 182.811,343.752 186.811,344.918 190.5,348C 186.562,346.969 182.562,345.802 178.5,344.5 Z"/></g>
<g><path style="opacity:1" fill="#678f19" d="M 290.5,347.5 C 308.326,346.503 326.326,346.17 344.5,346.5C 344.832,356.19 344.498,365.856 343.5,375.5C 341.972,374.139 340.305,372.972 338.5,372C 325.097,368.311 312.097,363.645 299.5,358C 295.886,354.897 292.886,351.397 290.5,347.5 Z"/></g>
<g><path style="opacity:1" fill="#264b76" d="M 219.5,341.5 C 220.097,341.735 220.43,342.235 220.5,343C 219.174,348.756 218.341,354.589 218,360.5C 215.823,353.934 216.323,347.601 219.5,341.5 Z"/></g>
<g><path style="opacity:1" fill="#e7ecf0" d="M 194.5,349.5 C 195.5,349.5 196.5,349.5 197.5,349.5C 197.884,351.665 197.217,353.332 195.5,354.5C 193.296,353.218 192.962,351.551 194.5,349.5 Z"/></g>
<g><path style="opacity:1" fill="#2a507a" d="M 232.5,343.5 C 233.043,343.56 233.376,343.893 233.5,344.5C 229.612,349.609 226.779,355.275 225,361.5C 224.46,354.245 226.96,348.245 232.5,343.5 Z"/></g>
<g><path style="opacity:1" fill="#0a3968" d="M 372.5,353.5 C 374.857,353.337 377.19,353.503 379.5,354C 382.682,356.091 386.015,357.925 389.5,359.5C 389.167,359.833 388.833,360.167 388.5,360.5C 377.839,363.999 367.172,367.499 356.5,371C 353.751,372.123 351.251,373.623 349,375.5C 348.333,369.5 348.333,363.5 349,357.5C 357.68,360.97 365.513,359.637 372.5,353.5 Z"/></g>
<g><path style="opacity:1" fill="#8fa6bb" d="M 184.5,355.5 C 188.861,354.237 193.194,354.737 197.5,357C 193.168,356.837 188.834,356.337 184.5,355.5 Z"/></g>
<g><path style="opacity:1" fill="#e2e8ee" d="M 198.5,358.5 C 203.123,357.408 204.956,359.075 204,363.5C 198.42,365.752 196.587,364.085 198.5,358.5 Z"/></g>
<g><path style="opacity:1" fill="#113d6b" d="M 549.5,363.5 C 552.574,363.873 555.574,364.539 558.5,365.5C 558.5,366.5 558.5,367.5 558.5,368.5C 556.459,368.146 554.626,368.146 553,368.5C 551.451,371.312 550.618,374.312 550.5,377.5C 559.874,380.625 569.207,383.959 578.5,387.5C 579.934,386.064 581.1,384.398 582,382.5C 582.692,383.025 583.192,383.692 583.5,384.5C 581.159,389.868 578.825,395.201 576.5,400.5C 575.959,398.286 575.626,396.12 575.5,394C 566.317,390.495 557.15,386.995 548,383.5C 546.261,385.71 545.094,388.21 544.5,391C 546.112,392.482 547.112,394.315 547.5,396.5C 544.426,396.127 541.426,395.461 538.5,394.5C 538.5,393.5 538.5,392.5 538.5,391.5C 539.5,391.5 540.5,391.5 541.5,391.5C 543.464,383.441 546.131,375.608 549.5,368C 548.278,366.437 548.278,364.937 549.5,363.5 Z"/></g>
<g><path style="opacity:1" fill="#f6f8f9" d="M 226.5,365.5 C 231.493,365.997 232.493,368.164 229.5,372C 224.382,371.824 223.382,369.658 226.5,365.5 Z"/></g>
<g><path style="opacity:1" fill="#b8c7d4" d="M 205.5,364.5 C 207.635,364.147 208.968,364.98 209.5,367C 209.333,368.5 208.5,369.333 207,369.5C 205.521,368.244 203.855,367.244 202,366.5C 197.507,367.477 193.007,367.977 188.5,368C 194.136,366.127 199.803,364.96 205.5,364.5 Z"/></g>
<g><path style="opacity:1" fill="#e7ecf0" d="M 219.5,370.5 C 223.161,370.35 224.161,371.85 222.5,375C 218.707,375.487 217.707,373.987 219.5,370.5 Z"/></g>
<g><path style="opacity:1" fill="#d5dee6" d="M 234.5,370.5 C 236.948,370.085 238.281,371.085 238.5,373.5C 236.551,377.466 234.551,377.466 232.5,373.5C 233.193,372.482 233.859,371.482 234.5,370.5 Z"/></g>
<g><path style="opacity:1" fill="#cfd9e2" d="M 210.5,368.5 C 212.167,368.5 213.833,368.5 215.5,368.5C 215.5,370.167 215.5,371.833 215.5,373.5C 212.962,373.493 210.462,373.159 208,372.5C 202.928,373.641 198.095,375.141 193.5,377C 198.239,373.467 203.572,371.3 209.5,370.5C 209.863,369.817 210.196,369.15 210.5,368.5 Z"/></g>
<g><path style="opacity:1" fill="#103c6b" d="M 128.5,376.5 C 142.216,375.393 150.216,381.56 152.5,395C 148.325,412.254 137.992,417.587 121.5,411C 112.562,402.771 111.395,393.605 118,383.5C 121.154,380.488 124.654,378.155 128.5,376.5 Z"/></g>
<g><path style="opacity:1" fill="#f1f4f7" d="M 224.5,376.5 C 229.376,375.404 231.043,377.071 229.5,381.5C 224.134,383.468 222.468,381.801 224.5,376.5 Z"/></g>
<g><path style="opacity:1" fill="#7b98b0" d="M 243.5,376.5 C 243.261,378.467 243.594,380.301 244.5,382C 243.002,382.585 242.002,382.085 241.5,380.5C 242.167,379.167 242.833,377.833 243.5,376.5 Z"/></g>
<g><path style="opacity:1" fill="#b6c6d3" d="M 436.5,377.5 C 437.962,378.458 439.295,379.624 440.5,381C 437.51,381.847 436.176,380.68 436.5,377.5 Z"/></g>
<g><path style="opacity:1" fill="#cad6e0" d="M 253.5,378.5 C 255.017,381.495 254.017,382.661 250.5,382C 252.056,381.28 253.056,380.113 253.5,378.5 Z"/></g>
<g><path style="opacity:1" fill="#d3dce5" d="M 441.5,379.5 C 447.292,379.753 447.958,381.753 443.5,385.5C 442.523,383.589 441.857,381.589 441.5,379.5 Z"/></g>
<g><path style="opacity:1" fill="#f1f4f6" d="M 245.5,381.5 C 249.788,381.088 250.455,382.755 247.5,386.5C 245.783,385.332 245.116,383.665 245.5,381.5 Z"/></g>
<g><path style="opacity:1" fill="#c8d3de" d="M 213.5,376.5 C 214.525,376.897 214.692,377.563 214,378.5C 209.851,382.804 206.184,387.47 203,392.5C 203.335,389.745 204.335,387.078 206,384.5C 208.705,381.964 211.205,379.297 213.5,376.5 Z"/></g>
<g><path style="opacity:1" fill="#5f829f" d="M 217.5,386.5 C 217.5,386.167 217.5,385.833 217.5,385.5C 217.685,383.804 218.519,382.471 220,381.5C 220.28,383.672 219.447,385.339 217.5,386.5 Z"/></g>
<g><path style="opacity:1" fill="#f9fafb" d="M 132.5,383.5 C 138.652,382.408 143.818,384.075 148,388.5C 148.187,397.249 144.021,403.083 135.5,406C 131.167,406.667 126.833,406.667 122.5,406C 118.443,404.053 116.943,400.886 118,396.5C 121.162,390.164 125.996,385.831 132.5,383.5 Z"/></g>
<g><path style="opacity:1" fill="#ced8e2" d="M 439.5,384.5 C 443.672,387.285 443.339,388.952 438.5,389.5C 438.629,387.784 438.962,386.117 439.5,384.5 Z"/></g>
<g><path style="opacity:1" fill="#eff2f5" d="M 257.5,385.5 C 270.232,394.508 277.899,406.508 280.5,421.5C 278.827,419.914 276.827,419.247 274.5,419.5C 272.592,407.601 266.926,397.934 257.5,390.5C 256.334,388.833 256.334,387.166 257.5,385.5 Z"/></g>
<g><path style="opacity:1" fill="#c4d0db" d="M 237.5,384.5 C 238.873,384.343 240.207,384.51 241.5,385C 239.667,389.833 241.167,391.333 246,389.5C 246.494,391.134 246.66,392.801 246.5,394.5C 248.5,394.5 250.5,394.5 252.5,394.5C 252.5,393.167 252.5,391.833 252.5,390.5C 250.897,390.688 249.563,390.188 248.5,389C 249.701,388.097 250.535,386.931 251,385.5C 252.185,387.87 253.351,390.203 254.5,392.5C 254.278,395.055 252.945,396.722 250.5,397.5C 247.014,395.825 243.681,393.992 240.5,392C 239.239,389.745 237.906,387.578 236.5,385.5C 237.167,385.5 237.5,385.167 237.5,384.5 Z"/></g>
<g><path style="opacity:1" fill="#d2dce4" d="M 217.5,385.5 C 217.5,385.833 217.5,386.167 217.5,386.5C 215.361,393.054 213.528,399.72 212,406.5C 210.704,398.574 212.537,391.574 217.5,385.5 Z"/></g>
<g><path style="opacity:1" fill="#a1b5c6" d="M 421.5,393.5 C 423.331,391.251 425.664,390.085 428.5,390C 426.423,391.705 424.09,392.872 421.5,393.5 Z"/></g>
<g><path style="opacity:1" fill="#eaeef2" d="M 421.5,393.5 C 412.881,398.137 404.381,403.137 396,408.5C 394.926,407.382 393.76,406.382 392.5,405.5C 396.941,402.776 401.608,400.276 406.5,398C 407.899,397.405 409.232,397.572 410.5,398.5C 413.812,396.01 417.478,394.343 421.5,393.5 Z"/></g>
<g><path style="opacity:1" fill="#e9eef2" d="M 429.5,390.5 C 430.239,390.369 430.906,390.536 431.5,391C 423.845,398.492 415.178,404.492 405.5,409C 402.963,411.872 400.13,414.372 397,416.5C 395.992,414.741 394.492,413.574 392.5,413C 398.714,408.56 405.381,405.226 412.5,403C 418.59,399.301 424.257,395.134 429.5,390.5 Z"/></g>
<g><path style="opacity:1" fill="#e9eef2" d="M 433.5,390.5 C 434.573,391.251 434.74,392.251 434,393.5C 430.667,398.167 426.667,402.167 422,405.5C 419.385,409.783 416.385,413.783 413,417.5C 412.517,416.552 412.351,415.552 412.5,414.5C 411.325,414.719 410.325,414.386 409.5,413.5C 412.345,410.156 415.345,406.989 418.5,404C 424.916,401.084 429.916,396.584 433.5,390.5 Z"/></g>
<g><path style="opacity:1" fill="#0e3c6a" d="M 535.5,399.5 C 539.122,400.102 539.455,401.602 536.5,404C 545.672,409.42 555.006,414.587 564.5,419.5C 565.719,418.737 566.719,417.737 567.5,416.5C 568.583,417.365 568.749,418.365 568,419.5C 565.966,422.706 564.133,426.04 562.5,429.5C 561.635,430.583 560.635,430.749 559.5,430C 561.014,428.561 561.347,427.061 560.5,425.5C 551.657,420.578 542.657,415.912 533.5,411.5C 532.281,412.263 531.281,413.263 530.5,414.5C 530.167,414 529.833,413.5 529.5,413C 531.649,408.537 533.649,404.037 535.5,399.5 Z"/></g>
<g><path style="opacity:1" fill="#5f809e" d="M 375.5,404.5 C 374.833,407.833 374.167,411.167 373.5,414.5C 373.177,410.774 373.511,407.107 374.5,403.5C 375.107,403.624 375.44,403.957 375.5,404.5 Z"/></g>
<g><path style="opacity:1" fill="#103d6b" d="M 157.5,406.5 C 160.04,408.886 162.04,411.719 163.5,415C 158.816,423.238 154.816,431.738 151.5,440.5C 160.779,438.409 170.113,436.909 179.5,436C 181.5,438.667 183.5,441.333 185.5,444C 184.975,444.692 184.308,445.192 183.5,445.5C 182.751,443.988 181.584,442.988 180,442.5C 171.231,448.265 162.731,454.432 154.5,461C 156.014,462.439 156.347,463.939 155.5,465.5C 151.452,461.746 148.118,457.413 145.5,452.5C 145.833,452.167 146.167,451.833 146.5,451.5C 147.833,452.5 149.167,453.5 150.5,454.5C 156.307,450.526 161.974,446.36 167.5,442C 158.882,442.589 150.382,444.089 142,446.5C 141.5,446.167 141,445.833 140.5,445.5C 145.267,437.3 149.433,428.967 153,420.5C 146.922,425.122 140.755,429.622 134.5,434C 136.421,435.241 136.754,436.741 135.5,438.5C 132.795,435.583 130.462,432.416 128.5,429C 128.833,428.5 129.167,428 129.5,427.5C 130.719,428.263 131.719,429.263 132.5,430.5C 140.833,424.667 149.167,418.833 157.5,413C 157.264,410.882 157.264,408.716 157.5,406.5 Z"/></g>
<g><path style="opacity:1" fill="#edf1f4" d="M 435.5,396.5 C 436.376,396.369 437.043,396.702 437.5,397.5C 435.022,402.288 432.689,407.121 430.5,412C 431.022,412.561 431.355,413.228 431.5,414C 429.228,419.837 426.395,425.337 423,430.5C 422.751,429.376 422.251,428.376 421.5,427.5C 420.232,428.428 418.899,428.595 417.5,428C 420.714,423.074 423.548,417.907 426,412.5C 430.419,408.009 433.585,402.676 435.5,396.5 Z"/></g>
<g><path style="opacity:1" fill="#0d3b6a" d="M 522.5,425.5 C 528.269,424.634 532.769,426.634 536,431.5C 536.728,434.23 536.562,436.897 535.5,439.5C 541.472,440.664 547.472,440.83 553.5,440C 554.667,438.216 555.667,438.216 556.5,440C 554.848,442.323 553.181,444.656 551.5,447C 544.424,447.28 537.424,447.447 530.5,447.5C 534.022,450.851 537.856,453.851 542,456.5C 542.669,453.733 543.836,453.233 545.5,455C 543.056,459.277 540.056,463.11 536.5,466.5C 536.167,466.167 535.833,465.833 535.5,465.5C 536.167,464.5 536.833,463.5 537.5,462.5C 529.643,456.142 521.643,449.975 513.5,444C 511.536,443.376 509.869,443.876 508.5,445.5C 508.167,445.167 507.833,444.833 507.5,444.5C 511.808,437.513 516.808,431.179 522.5,425.5 Z"/></g>
<g><path style="opacity:1" fill="#1b1b1b" d="M -0.5,426.5 C 29.8407,426.167 60.174,426.5 90.5,427.5C 91.6405,428.425 91.6405,429.259 90.5,430C 91.5266,430.513 92.5266,431.013 93.5,431.5C 113.541,469.863 140.875,502.197 175.5,528.5C 116.833,528.5 58.1667,528.5 -0.5,528.5C -0.5,494.5 -0.5,460.5 -0.5,426.5 Z"/></g>
<g><path style="opacity:1" fill="#1b1b1b" d="M 601.5,426.5 C 639.833,426.5 678.167,426.5 716.5,426.5C 716.5,460.5 716.5,494.5 716.5,528.5C 650.167,528.5 583.833,528.5 517.5,528.5C 553.249,500.763 581.249,466.763 601.5,426.5 Z"/></g>
<g><path style="opacity:1" fill="#f3f5f7" d="M 521.5,431.5 C 528.513,432.004 531.679,435.671 531,442.5C 529.981,443.687 528.814,444.687 527.5,445.5C 523.691,442.858 520.024,440.025 516.5,437C 517.843,434.768 519.51,432.934 521.5,431.5 Z"/></g>
<g><path style="opacity:1" fill="#113d6c" d="M 189.5,449.5 C 195.262,453.757 200.595,458.59 205.5,464C 207.384,464.216 209.051,464.883 210.5,466C 208.316,468.016 206.316,470.183 204.5,472.5C 203.5,472.167 202.833,471.5 202.5,470.5C 203.833,469.38 204.333,468.047 204,466.5C 201.591,464.38 199.091,462.38 196.5,460.5C 193.167,463.167 190.167,466.167 187.5,469.5C 189.53,471.607 191.697,473.607 194,475.5C 195.363,473.216 196.863,473.049 198.5,475C 196.622,476.543 195.122,478.376 194,480.5C 192.388,483.079 190.888,483.079 189.5,480.5C 189.977,479.522 190.643,478.689 191.5,478C 189.65,475.982 187.65,474.149 185.5,472.5C 182.015,475.484 178.682,478.651 175.5,482C 178.349,485.016 181.349,487.85 184.5,490.5C 185.719,489.737 186.719,488.737 187.5,487.5C 189.101,488.035 189.601,489.035 189,490.5C 187.649,492.019 186.149,493.352 184.5,494.5C 177.685,488.853 171.019,483.02 164.5,477C 165.025,476.308 165.692,475.808 166.5,475.5C 167.62,476.833 168.953,477.333 170.5,477C 177.5,469.333 184.5,461.667 191.5,454C 189.35,452.808 188.683,451.308 189.5,449.5 Z"/></g>
<g><path style="opacity:1" fill="#133e6c" d="M 503.5,448.5 C 506.23,449.991 506.063,451.325 503,452.5C 502.333,453.167 502.333,453.833 503,454.5C 508.333,460.5 513.667,466.5 519,472.5C 521.863,485.416 516.696,493.082 503.5,495.5C 501.209,495.378 499.209,494.545 497.5,493C 491.468,487.302 485.801,481.302 480.5,475C 478.953,474.667 477.62,475.167 476.5,476.5C 476.167,476.167 475.833,475.833 475.5,475.5C 478.543,471.456 482.209,468.123 486.5,465.5C 486.833,465.833 487.167,466.167 487.5,466.5C 486.167,467.62 485.667,468.953 486,470.5C 491.153,476.62 496.653,482.453 502.5,488C 510.449,490.527 515.116,487.693 516.5,479.5C 516.485,477.366 515.985,475.366 515,473.5C 510.167,468 505.333,462.5 500.5,457C 498.613,456.837 497.113,457.671 496,459.5C 495.308,458.975 494.808,458.308 494.5,457.5C 497.854,454.812 500.854,451.812 503.5,448.5 Z"/></g>
<g><path style="opacity:1" fill="#113d6b" d="M 216.5,472.5 C 221.096,475.092 225.429,478.092 229.5,481.5C 227.722,481.569 225.889,481.903 224,482.5C 218.624,490.753 213.124,498.92 207.5,507C 210.968,508.97 214.301,511.136 217.5,513.5C 218.608,510.497 220.275,509.997 222.5,512C 221.354,514.144 219.854,515.977 218,517.5C 210.406,513.067 203.24,508.067 196.5,502.5C 198.263,502.694 200.097,502.694 202,502.5C 207.631,494.069 213.131,485.569 218.5,477C 217.728,475.779 216.728,474.779 215.5,474C 216.056,473.617 216.389,473.117 216.5,472.5 Z"/></g>
<g><path style="opacity:1" fill="#0d3b6a" d="M 468.5,477.5 C 471.092,479.827 473.092,482.661 474.5,486C 472.765,487.985 471.432,487.651 470.5,485C 461.486,484.17 456.486,488.337 455.5,497.5C 456.657,507.847 462.324,513.847 472.5,515.5C 477.918,515.063 481.585,512.396 483.5,507.5C 483.32,506.446 482.987,505.446 482.5,504.5C 483,504.167 483.5,503.833 484,503.5C 486.071,504.775 487.571,506.609 488.5,509C 478.482,521.561 466.982,523.394 454,514.5C 447.003,503.607 448.169,493.773 457.5,485C 460.561,482.965 463.895,481.799 467.5,481.5C 467.433,480.041 467.766,478.708 468.5,477.5 Z"/></g>
<g><path style="opacity:1" fill="#0f3c6b" d="M 255.5,494.5 C 256.496,494.414 257.329,494.748 258,495.5C 258.167,498.167 258.333,500.833 258.5,503.5C 257.657,515 257.324,526.333 257.5,537.5C 253.412,535.692 249.412,533.692 245.5,531.5C 246.776,530.355 248.109,530.355 249.5,531.5C 250.657,528.216 250.824,524.882 250,521.5C 246.008,519.242 241.841,517.742 237.5,517C 235.269,518.61 233.269,520.443 231.5,522.5C 232.242,523.287 233.075,523.953 234,524.5C 234.688,525.332 234.521,525.998 233.5,526.5C 230.131,524.827 226.798,523.16 223.5,521.5C 225.108,520.758 226.775,520.591 228.5,521C 237.395,511.937 246.395,503.104 255.5,494.5 Z"/></g>
<g><path style="opacity:1" fill="#0f3c6b" d="M 433.5,496.5 C 434.675,496.281 435.675,496.614 436.5,497.5C 437.601,499.642 438.601,501.808 439.5,504C 437.094,504.779 435.427,503.946 434.5,501.5C 430.882,502.803 427.549,504.47 424.5,506.5C 425.638,509.913 426.971,513.246 428.5,516.5C 431.727,517.416 434.727,516.75 437.5,514.5C 436.754,513.264 436.421,511.93 436.5,510.5C 437.675,510.281 438.675,510.614 439.5,511.5C 440.909,514.727 441.909,518.06 442.5,521.5C 441.5,521.5 440.5,521.5 439.5,521.5C 439.5,520.5 439.5,519.5 439.5,518.5C 436.5,519.167 433.5,519.833 430.5,520.5C 431.647,525.441 433.48,530.108 436,534.5C 439.351,532.74 442.851,531.406 446.5,530.5C 446.579,529.07 446.246,527.736 445.5,526.5C 446,526.167 446.5,525.833 447,525.5C 449.603,527.343 450.437,529.677 449.5,532.5C 441.912,535.696 434.246,538.696 426.5,541.5C 426.167,541.167 425.833,540.833 425.5,540.5C 426.491,539.335 427.491,538.168 428.5,537C 424.595,527.117 420.595,517.284 416.5,507.5C 415.109,508.645 413.776,508.645 412.5,507.5C 419.01,504.383 425.677,501.549 432.5,499C 433.252,498.329 433.586,497.496 433.5,496.5 Z"/></g>
<g><path style="opacity:1" fill="#f2f5f7" d="M 250.5,503.5 C 251.486,507.97 251.819,512.637 251.5,517.5C 247.813,516.824 244.48,515.324 241.5,513C 244.704,509.964 247.704,506.797 250.5,503.5 Z"/></g>
<g><path style="opacity:1" fill="#123d6c" d="M 274.5,504.5 C 278.45,505.112 282.283,506.112 286,507.5C 289.39,516.614 293.057,525.614 297,534.5C 300.083,527.833 301.75,520.833 302,513.5C 300.795,512.929 299.628,512.262 298.5,511.5C 299,511.167 299.5,510.833 300,510.5C 303.761,511.619 307.594,512.286 311.5,512.5C 311.935,515.613 310.935,516.279 308.5,514.5C 307.353,514.818 306.519,515.484 306,516.5C 303.311,526.778 300.811,537.111 298.5,547.5C 297.167,548.833 295.833,548.833 294.5,547.5C 290.431,537.459 286.264,527.459 282,517.5C 280.04,524.302 278.206,531.135 276.5,538C 276.473,540.64 277.807,541.973 280.5,542C 279.892,542.87 279.059,543.37 278,543.5C 274.553,542.511 271.053,541.844 267.5,541.5C 267.5,540.5 267.5,539.5 267.5,538.5C 268.93,538.421 270.264,538.754 271.5,539.5C 271.833,539 272.167,538.5 272.5,538C 274.833,529 277.167,520 279.5,511C 277.948,508.616 276.282,506.449 274.5,504.5 Z"/></g>
<g><path style="opacity:1" fill="#0e3c6a" d="M 399.5,508.5 C 400.496,508.414 401.329,508.748 402,509.5C 402.74,512.176 403.073,514.842 403,517.5C 402.586,517.957 402.086,518.291 401.5,518.5C 398.641,512.717 394.808,512.051 390,516.5C 389.333,517.833 389.333,519.167 390,520.5C 395.839,524.087 401.839,527.42 408,530.5C 412.376,537.899 410.876,543.733 403.5,548C 399.258,547.997 395.258,548.83 391.5,550.5C 389.296,547.553 388.296,544.22 388.5,540.5C 389.5,540.5 390.5,540.5 391.5,540.5C 391.238,541.978 391.571,543.311 392.5,544.5C 396.778,546.199 400.611,545.533 404,542.5C 404.667,540.833 404.667,539.167 404,537.5C 399.307,534.071 394.141,531.571 388.5,530C 381.309,522.818 381.976,516.484 390.5,511C 393.992,511.07 396.992,510.237 399.5,508.5 Z"/></g>
<g><path style="opacity:1" fill="#0d3b6a" d="M 317.5,513.5 C 324.837,513.872 332.171,514.372 339.5,515C 352.104,520.474 355.937,529.641 351,542.5C 348.708,546.788 345.208,549.622 340.5,551C 332.507,551.5 324.507,551.666 316.5,551.5C 316.5,550.5 316.5,549.5 316.5,548.5C 317.833,548.5 319.167,548.5 320.5,548.5C 320.981,537.839 321.314,527.172 321.5,516.5C 320.167,516.5 318.833,516.5 317.5,516.5C 317.5,515.5 317.5,514.5 317.5,513.5 Z"/></g>
<g><path style="opacity:1" fill="#f8f9fa" d="M 328.5,518.5 C 343.79,519.663 348.956,527.663 344,542.5C 340.681,548.74 335.515,551.074 328.5,549.5C 328.5,539.167 328.5,528.833 328.5,518.5 Z"/></g>
<g><path style="opacity:1" fill="#151515" d="M -0.5,528.5 C 58.1667,528.5 116.833,528.5 175.5,528.5C 201.023,547.431 229.023,561.931 259.5,572C 352.73,598.851 438.73,584.351 517.5,528.5C 583.833,528.5 650.167,528.5 716.5,528.5C 716.5,553.167 716.5,577.833 716.5,602.5C 477.5,602.5 238.5,602.5 -0.5,602.5C -0.5,577.833 -0.5,553.167 -0.5,528.5 Z"/></g>
</svg>
